<svg xmlns="http://www.w3.org/2000/svg" viewBox="0 0 750 500"><g id="freepik--background-complete--inject-77"><path d="M233.85,382.05c4.33-2.23,9.42-2.52,14.22-1.73,2.58.43,5.27,1.2,7,3.14s2.09,5.35.07,7a6.72,6.72,0,0,1-4.43,1.12c-3.76,0-7.93-.7-10.93,1.56-1.72,1.29-2.86,3.44-4.91,4.07a4.83,4.83,0,0,1-5.32-2.37,8.27,8.27,0,0,1-.61-6.11A9.32,9.32,0,0,1,233.85,382.05Z" style="fill:#ebebeb"></path><path d="M223.94,362.92c2.65,3.77,7.79,2.52,10.17.22s3.39-5.65,4.31-8.84c2.1-7.28,4.21-14.92,2.65-22.33a12.46,12.46,0,0,0-2.85-6.08,6.5,6.5,0,0,0-6.15-2c-2.59.68-4.2,3.22-5.36,5.64a53.2,53.2,0,0,0-5.27,22.85c0,3.68.43,7.54,2.5,10.58" style="fill:#ebebeb"></path><path d="M216.68,368.34c2.87-3.41,3.41-8.38,2.14-12.65a24.37,24.37,0,0,0-7.5-10.87,40.36,40.36,0,0,0-13.41-7.92,14.28,14.28,0,0,0-6-1,6.32,6.32,0,0,0-5.06,3.06c-1.41,2.69-.06,6,1.41,8.63A101.6,101.6,0,0,0,197,361c2.64,3.41,5.66,6.77,9.69,8.31s8.21,1.36,10.34-1.44" style="fill:#ebebeb"></path><path d="M223.76,419.91a8.28,8.28,0,0,0,.24-1.72c.12-1.25.28-2.82.46-4.69a67.64,67.64,0,0,1,1-6.87,53.14,53.14,0,0,1,2.5-8.11,30.2,30.2,0,0,1,4.14-7.34,15.52,15.52,0,0,1,5.24-4.35,14.56,14.56,0,0,1,4.41-1.37,7.9,7.9,0,0,0,1.71-.25,7.83,7.83,0,0,0-1.74,0,13.5,13.5,0,0,0-4.6,1.2,15.43,15.43,0,0,0-5.52,4.39,29,29,0,0,0-4.3,7.49,50.1,50.1,0,0,0-2.48,8.24,56.84,56.84,0,0,0-.91,7c-.15,2-.21,3.6-.23,4.71A7.89,7.89,0,0,0,223.76,419.91Z" style="fill:#e0e0e0"></path><path d="M224.09,416.3a4.44,4.44,0,0,0,0-.8v-2.27c0-2,0-4.84.1-8.37.17-7.07.78-14.67,2-25.39,1.12-10.08,2.61-21.81,4.19-29.44.33-1.73.68-3.3,1-4.66s.56-2.55.81-3.51l.54-2.21a4.06,4.06,0,0,0,.14-.79,2.89,2.89,0,0,0-.28.75l-.66,2.18c-.3.95-.6,2.12-.94,3.49s-.73,2.91-1.1,4.65a259.26,259.26,0,0,0-4.4,27.31c-1.18,10.74-1.71,20.52-1.75,27.61,0,3.54,0,6.41.12,8.38.06.93.1,1.68.14,2.28A2.93,2.93,0,0,0,224.09,416.3Z" style="fill:#e0e0e0"></path><path d="M224.13,397.44a15.57,15.57,0,0,0,0-2.38c-.09-1.53-.3-3.74-.73-6.45a86.17,86.17,0,0,0-2.1-9.39,75.52,75.52,0,0,0-3.93-11.12,59.44,59.44,0,0,0-11.53-18,27.51,27.51,0,0,0-2.72-2.52c-.41-.35-.78-.7-1.15-1l-1.06-.73a15.24,15.24,0,0,0-2-1.28c-.11.16,2.84,1.89,6.57,5.86a62.38,62.38,0,0,1,11.24,17.9,87.44,87.44,0,0,1,3.95,11,93.11,93.11,0,0,1,2.23,9.3c.49,2.68.78,4.86,1,6.38A15.14,15.14,0,0,0,224.13,397.44Z" style="fill:#e0e0e0"></path><polygon points="205.9 430.71 207.79 456.61 241.06 456.61 242.95 430.71 205.9 430.71" style="fill:#e0e0e0"></polygon><rect x="202.68" y="420.51" width="44.23" height="10.21" style="fill:#e0e0e0"></rect><polygon points="202.69 455.62 202.69 458.45 204.76 458.45 246.19 458.45 246.19 455.62 202.69 455.62" style="fill:#ebebeb"></polygon><polygon points="206.8 463.43 204.76 458.45 244.6 458.45 242.23 463.43 206.8 463.43" style="fill:#e0e0e0"></polygon><path d="M242.33,439.18a.9.9,0,0,1-.15.24c-.14.17-.3.39-.5.66l-1.94,2.48-.08.11-.09-.12L234.81,436h.27l-4.68,6.63-.15.21-.17-.19c-1.73-2.06-3.6-4.3-5.56-6.62h.33l-.31.38c-1.72,2.16-3.39,4.26-5,6.23l-.17.21-.15-.21L214.56,436h.27l-5.77,6.58-.11.12-.08-.13-1.8-3-.47-.81a1.08,1.08,0,0,1-.14-.29,1.52,1.52,0,0,1,.19.26l.52.78,1.9,3h-.18l5.68-6.67.14-.16.13.18,4.73,6.6h-.31c1.57-2,3.24-4.08,5-6.25l.3-.38.16-.2.16.2,5.55,6.62-.31,0,4.73-6.61.14-.19.13.19,4.66,6.66h-.16l2-2.41.54-.63C242.26,439.24,242.32,439.17,242.33,439.18Z" style="fill:#f5f5f5"></path><path d="M243.41,430.54c0,.12-8.33.21-18.62.21s-18.61-.09-18.61-.21,8.33-.2,18.61-.2S243.41,430.43,243.41,430.54Z" style="fill:#f5f5f5"></path><path d="M245.09,458.73c0,.11-9.06.21-20.23.21s-20.24-.1-20.24-.21,9.06-.21,20.24-.21S245.09,458.62,245.09,458.73Z" style="fill:#f5f5f5"></path><rect x="550.07" y="364.44" width="171.42" height="97.4" style="fill:#f5f5f5"></rect><rect x="550.07" y="364.44" width="85.71" height="97.4" style="fill:#e0e0e0"></rect><polygon points="671.38 364.65 671.38 396.56 685.23 396.56 685.23 364.44 671.38 364.65" style="fill:#fff"></polygon><polyline points="597.28 396.56 597.28 364.44 583.43 364.65 583.43 396.56" style="fill:#e0e0e0"></polyline><rect x="641.85" y="435.42" width="31.46" height="21.8" style="fill:#fff"></rect><path d="M673.31,457.22s0-.54,0-1.56,0-2.52,0-4.39c0-3.83,0-9.26,0-15.85l.08.09-31.45,0s.19-.2.1-.1h0v5.74c0,1.89,0,3.76,0,5.58v10.46l-.1-.09,22.67,0,6.47,0,2.32,0s-.79,0-2.28,0l-6.45,0-22.73.05h-.09v-.1c0-3.31,0-6.81,0-10.46V435.44h0l.11-.11,31.45,0h.09v.08c0,6.62,0,12.06,0,15.9,0,1.86,0,3.33,0,4.38S673.31,457.22,673.31,457.22Z" style="fill:#e0e0e0"></path><path d="M671.24,455s0-.44,0-1.23,0-2,0-3.47c0-3,0-7.32-.05-12.55l.09.08-27.31,0s.2-.19.1-.1h0V455l-.1-.1,19.64,0,5.63,0,2,0-2,0-5.62,0-19.7.05h-.1V437.71h0l.11-.11,27.31,0h.08v.08c0,5.25,0,9.56-.05,12.6,0,1.46,0,2.61,0,3.45S671.24,455,671.24,455Z" style="fill:#e0e0e0"></path><rect x="661.23" y="444.46" width="8.11" height="8.35" style="fill:#e0e0e0"></rect><path d="M659.5,450.68c0,.05-2.9.1-6.47.1s-6.47,0-6.47-.1,2.89-.11,6.47-.11S659.5,450.62,659.5,450.68Z" style="fill:#e0e0e0"></path><path d="M659.5,444.84c0,.06-2.9.11-6.47.11s-6.47-.05-6.47-.11,2.89-.1,6.47-.1S659.5,444.79,659.5,444.84Z" style="fill:#e0e0e0"></path><path d="M659.5,442.6c0,.06-2.9.1-6.47.1s-6.47,0-6.47-.1,2.89-.1,6.47-.1S659.5,442.54,659.5,442.6Z" style="fill:#e0e0e0"></path><path d="M659.5,440.43c0,.05-2.9.1-6.47.1s-6.47,0-6.47-.1,2.89-.11,6.47-.11S659.5,440.37,659.5,440.43Z" style="fill:#e0e0e0"></path><path d="M659.5,452.82c0,.05-2.9.1-6.47.1s-6.47-.05-6.47-.1,2.89-.11,6.47-.11S659.5,452.76,659.5,452.82Z" style="fill:#e0e0e0"></path><rect x="678.48" y="435.42" width="21.36" height="21.8" style="fill:#fff"></rect><path d="M699.83,457.22s0-.56,0-1.59,0-2.56,0-4.44c0-3.85,0-9.28,0-15.77l.09.09-21.35,0,.1-.1h0V447c0,3.65,0,7.1,0,10.27l-.09-.09,15.45.05,4.35,0,1.55,0-1.51,0-4.33,0-15.51.05h-.09v-.09c0-3.17,0-6.62,0-10.27v-5.64c0-1,0-1.93,0-2.92v-2.95h0l.11-.11h21.44v.09c0,6.51,0,12,0,15.83,0,1.87,0,3.35,0,4.42S699.83,457.22,699.83,457.22Z" style="fill:#e0e0e0"></path><polygon points="682.56 443.24 685.22 438.92 687.9 443.2 686.4 443.2 686.4 453.72 684.03 453.72 684.03 443.25 682.56 443.24" style="fill:#e0e0e0"></polygon><polygon points="690.5 443.24 693.15 438.92 695.83 443.2 694.33 443.2 694.33 453.72 691.97 453.72 691.97 443.25 690.5 443.24" style="fill:#e0e0e0"></polygon><rect x="139.47" y="47.39" width="65.62" height="68.4" transform="translate(-9.57 24.41) rotate(-7.89)" style="fill:#e0e0e0"></rect><rect x="135.07" y="48" width="65.62" height="68.4" transform="translate(-9.69 23.81) rotate(-7.89)" style="fill:#fafafa"></rect><path d="M205.09,111.6l-65,9-9.39-67.8,65-9Zm-65,9,64.95-9-9.37-67.71-65,9Z" style="fill:#e0e0e0"></path><rect x="143.89" y="57.2" width="47.98" height="50.01" transform="translate(-9.69 23.81) rotate(-7.89)" style="fill:#fafafa"></rect><path d="M147.59,110.59a8.48,8.48,0,0,1-1,1.53c-.65.9-1.57,2.14-2.6,3.48s-2,2.54-2.69,3.4a7.83,7.83,0,0,1-1.22,1.34,7.09,7.09,0,0,1,1-1.52c.65-.91,1.57-2.14,2.6-3.49s2-2.55,2.7-3.41A7.7,7.7,0,0,1,147.59,110.59Z" style="fill:#e0e0e0"></path><path d="M195.1,103.89a8.25,8.25,0,0,1,1.52,1c.91.65,2.14,1.57,3.48,2.6s2.55,2,3.41,2.69a7.48,7.48,0,0,1,1.33,1.22,8,8,0,0,1-1.52-1c-.91-.65-2.14-1.57-3.49-2.6s-2.55-2-3.41-2.7A7.83,7.83,0,0,1,195.1,103.89Z" style="fill:#e0e0e0"></path><path d="M188.1,54.29a7.09,7.09,0,0,1,1-1.52c.65-.91,1.56-2.14,2.6-3.48s2-2.55,2.69-3.41a8.23,8.23,0,0,1,1.21-1.33,7.56,7.56,0,0,1-1,1.52C194,47,193,48.21,192,49.56s-2,2.55-2.7,3.41A7.58,7.58,0,0,1,188.1,54.29Z" style="fill:#e0e0e0"></path><path d="M140.59,61a8.26,8.26,0,0,1-1.53-1c-.9-.65-2.14-1.56-3.48-2.59s-2.54-2-3.4-2.7a7.24,7.24,0,0,1-1.33-1.21,7.51,7.51,0,0,1,1.51,1c.91.64,2.15,1.56,3.49,2.6s2.55,2,3.41,2.7A6.84,6.84,0,0,1,140.59,61Z" style="fill:#e0e0e0"></path><path d="M194.94,103.7a1.17,1.17,0,0,1-.05-.24c0-.17-.06-.4-.1-.69l-.39-2.67c-.34-2.35-.83-5.76-1.45-10.09-1.22-8.67-3-21-5.06-35.82l.21.15-47.38,6.59h0l.18-.24,6.84,49.54-.21-.16,34.33-4.66,9.64-1.29,2.56-.33.66-.08.23,0-.21,0-.64.1-2.51.37L182,105.58l-34.42,4.86-.18,0,0-.18c-2-14.35-4.36-31.35-6.89-49.54l0-.21.21,0h0L188.05,54l.19,0,0,.19c2,14.85,3.7,27.25,4.89,36,.57,4.32,1,7.72,1.34,10.06.15,1.15.27,2,.35,2.65,0,.28.06.5.08.67A1.89,1.89,0,0,1,194.94,103.7Z" style="fill:#e0e0e0"></path><rect x="159.87" y="74.2" width="16.01" height="16.01" transform="translate(-9.69 23.81) rotate(-7.89)" style="fill:#ebebeb"></rect><path d="M591,158.36V169H570.32V158.36Z" style="fill:#ebebeb"></path><path d="M524.31,163.79a2.53,2.53,0,0,0,0,.28,6.12,6.12,0,0,0,6.14,5.73h61.46V169H577.33a5.33,5.33,0,0,1-5.33-5.34h0a5.33,5.33,0,0,1,5.33-5.33h14.59v-1.13l-61.48.2A6.15,6.15,0,0,0,524.31,163.79Z" style="fill:#e0e0e0"></path><path d="M591,163.83c0,.07-4.24.12-9.48.12s-9.48,0-9.48-.12,4.25-.11,9.48-.11S591,163.77,591,163.83Z" style="fill:#e0e0e0"></path><path d="M590.66,166.24c0,.06-4,.11-9,.11s-9,0-9-.11,4-.11,9-.11S590.66,166.18,590.66,166.24Z" style="fill:#e0e0e0"></path><path d="M591,168.44c0,.06-3.61.11-8.06.11s-8.07-.05-8.07-.11,3.61-.12,8.07-.12S591,168.37,591,168.44Z" style="fill:#e0e0e0"></path><path d="M591,161.68c0,.06-4.16.11-9.28.11s-9.29,0-9.29-.11,4.16-.12,9.29-.12S591,161.61,591,161.68Z" style="fill:#e0e0e0"></path><path d="M590.66,159.52c0,.06-3.7.11-8.26.11s-8.27,0-8.27-.11,3.7-.12,8.27-.12S590.66,159.45,590.66,159.52Z" style="fill:#e0e0e0"></path><path d="M531.75,157.61a15.16,15.16,0,0,0-1.3,1.56,8.08,8.08,0,0,0-1.41,4.58,8.19,8.19,0,0,0,1.52,4.56,12.71,12.71,0,0,0,1.34,1.52,2,2,0,0,1-.45-.33,6.72,6.72,0,0,1-1-1.1,7.78,7.78,0,0,1-.11-9.33,7,7,0,0,1,1-1.12A1.89,1.89,0,0,1,531.75,157.61Z" style="fill:#f5f5f5"></path><path d="M529.67,157.39a13.08,13.08,0,0,0-1.3,1.55,7.91,7.91,0,0,0,.11,9.14,13.89,13.89,0,0,0,1.34,1.52,2.17,2.17,0,0,1-.44-.33,6.7,6.7,0,0,1-1-1.1,7.76,7.76,0,0,1-.11-9.32,6.75,6.75,0,0,1,1-1.13A2.34,2.34,0,0,1,529.67,157.39Z" style="fill:#f5f5f5"></path><path d="M571.44,157.61a14.35,14.35,0,0,0-1.31,1.56,7.91,7.91,0,0,0,.11,9.14,13.89,13.89,0,0,0,1.34,1.52,2.17,2.17,0,0,1-.44-.33,7.17,7.17,0,0,1-1-1.1,7.78,7.78,0,0,1-.11-9.33,8.17,8.17,0,0,1,1-1.12A2,2,0,0,1,571.44,157.61Z" style="fill:#f5f5f5"></path><path d="M569.36,157.39a12.48,12.48,0,0,0-1.31,1.55,7.91,7.91,0,0,0,.11,9.14,15.32,15.32,0,0,0,1.34,1.52,2.56,2.56,0,0,1-.44-.33,7.17,7.17,0,0,1-1-1.1,7.8,7.8,0,0,1-.11-9.32,7.79,7.79,0,0,1,1-1.13A2.17,2.17,0,0,1,569.36,157.39Z" style="fill:#f5f5f5"></path><path d="M538.75,165.29l-.06-4.34a3.2,3.2,0,0,0-.15-1.11,1.08,1.08,0,0,0-.83-.7,1.65,1.65,0,0,0-1.77.84,4.16,4.16,0,0,0-.42,2.13,32.62,32.62,0,0,0,.16,3.42,4,4,0,0,0,.41,1.57,1.31,1.31,0,0,0,2.48-.21A4.53,4.53,0,0,0,538.75,165.29Z" style="fill:#f5f5f5"></path><path d="M562.62,164c0,.07-4.44.12-9.92.12s-9.93,0-9.93-.12,4.44-.11,9.93-.11S562.62,164,562.62,164Z" style="fill:#f5f5f5"></path><polygon points="524.16 156.6 524.05 146.49 529.55 146.49 529.74 156.6 524.16 156.6" style="fill:#f5f5f5"></polygon><path d="M529.23,148.29a29.84,29.84,0,0,1-5.12,0,27.37,27.37,0,0,1,5.12,0Z" style="fill:#e0e0e0"></path><path d="M529.23,149.85a29.84,29.84,0,0,1-5.12,0,27.37,27.37,0,0,1,5.12,0Z" style="fill:#e0e0e0"></path><path d="M529.23,151.41a29.84,29.84,0,0,1-5.12,0,27.37,27.37,0,0,1,5.12,0Z" style="fill:#e0e0e0"></path><path d="M529.23,153a29.84,29.84,0,0,1-5.12,0,27.37,27.37,0,0,1,5.12,0Z" style="fill:#e0e0e0"></path><path d="M529.23,154.53a29.84,29.84,0,0,1-5.12,0,27.37,27.37,0,0,1,5.12,0Z" style="fill:#e0e0e0"></path><path d="M523.76,146.22h61a28.87,28.87,0,0,1,0,10.93H524v-.75h3.71a1.75,1.75,0,0,0,1.75-1.75V148.6a1.75,1.75,0,0,0-1.75-1.75h-4Z" style="fill:#ebebeb"></path><path d="M538.18,151.69h1a.2.2,0,0,1,.11,0,.19.19,0,0,1,.11.19s0,.05,0,.06l-.06.26a3.09,3.09,0,0,1-.64,1.16,1.23,1.23,0,0,1-.87.44h-.12a1,1,0,0,1-.69-.5,2.25,2.25,0,0,1-.31-1.23,3.26,3.26,0,0,1,.12-.87,2.82,2.82,0,0,1,.61-1.18,1.2,1.2,0,0,1,.91-.49.86.86,0,0,1,.39.09,1.26,1.26,0,0,1,.59.74.19.19,0,0,1,0,.1.2.2,0,0,1,0,.11.23.23,0,0,1-.19.11h-.07a.2.2,0,0,1-.14-.14v0a.9.9,0,0,0-.12-.24.6.6,0,0,0-.49-.29.61.61,0,0,0-.34.12,1.81,1.81,0,0,0-.55.8,3,3,0,0,0-.24,1.15,2.16,2.16,0,0,0,.17.9.59.59,0,0,0,.53.4.72.72,0,0,0,.49-.29,2.71,2.71,0,0,0,.53-1h-.73a.25.25,0,0,1-.25-.24s0-.06,0-.08A.23.23,0,0,1,538.18,151.69Z" style="fill:#fafafa"></path><path d="M541.64,149.7l0,.08c0,.15.28,1.41.71,3.78a.07.07,0,0,1,0,.05.2.2,0,0,1,0,.11.18.18,0,0,1-.18.11h0a.18.18,0,0,1-.17-.15l-.24-1.25h-1.26l-.6,1.26,0,0a.24.24,0,0,1-.19.1l-.12,0a.24.24,0,0,1-.1-.18.14.14,0,0,1,0-.07c0-.09.1-.23.18-.41.88-1.92,1.4-3,1.58-3.39a.26.26,0,0,1,.21-.16A.26.26,0,0,1,541.64,149.7Zm-.28.85-.67,1.42h.95Z" style="fill:#fafafa"></path><path d="M545,153.83H543.2a.27.27,0,0,1-.12,0,.38.38,0,0,1-.1-.23h0c0-.08.17-1.33.51-3.77a.22.22,0,0,1,0-.08.2.2,0,0,1,.2-.13l.1,0a.22.22,0,0,1,.11.2c0,.16-.06.51-.12,1-.21,1.6-.32,2.45-.33,2.54H545l.12,0a.22.22,0,0,1,.14.21s0,0,0,.07A.25.25,0,0,1,545,153.83Z" style="fill:#fafafa"></path><path d="M547.55,149.7l0,.08q.06.22.72,3.78a.07.07,0,0,1,0,.05.2.2,0,0,1,0,.11.18.18,0,0,1-.18.11h0a.19.19,0,0,1-.17-.15l-.24-1.25H546.4l-.6,1.26a.05.05,0,0,0,0,0,.24.24,0,0,1-.19.1.21.21,0,0,1-.22-.21.15.15,0,0,1,0-.07c0-.09.1-.23.19-.41.88-1.92,1.4-3,1.57-3.39a.26.26,0,0,1,.21-.16A.24.24,0,0,1,547.55,149.7Zm-.27.85L546.6,152h1Z" style="fill:#fafafa"></path><path d="M550.48,151.87c.15.4.26.71.33.92.19.53.29.8.29.83a.15.15,0,0,1,0,.11.19.19,0,0,1-.18.1.2.2,0,0,1-.18-.14.69.69,0,0,1,0-.1c-.1-.23-.26-.66-.49-1.29l-1,1.42a.26.26,0,0,1-.19.11.27.27,0,0,1-.12,0,.19.19,0,0,1-.1-.18v-.05a.55.55,0,0,1,.11-.17c.35-.45.74-1,1.16-1.61l-.13-.35c-.39-1.05-.59-1.59-.59-1.63a.23.23,0,0,1,0-.11.2.2,0,0,1,.18-.11.25.25,0,0,1,.2.12l.62,1.66,1.22-1.67a.25.25,0,0,1,.2-.1.16.16,0,0,1,.1,0,.22.22,0,0,1,.11.2.22.22,0,0,1,0,.1Z" style="fill:#fafafa"></path><path d="M555,149.61l.1,0a.21.21,0,0,1,.12.19c-.3,2.38-.47,3.66-.5,3.85a2.43,2.43,0,0,1-.39,1,1.44,1.44,0,0,1-1.22.6,1.5,1.5,0,0,1-.59-.16,1.37,1.37,0,0,1-.65-.57.2.2,0,0,1,0-.11.26.26,0,0,1,0-.11.2.2,0,0,1,.19-.1.19.19,0,0,1,.16.09,1.19,1.19,0,0,0,.94.53.9.9,0,0,0,.73-.37,2,2,0,0,0,.41-1.15,1,1,0,0,1-.27.28,1.07,1.07,0,0,1-.66.22h-.12a1,1,0,0,1-.7-.5,2.25,2.25,0,0,1-.31-1.23q0-.33,0-.69c0-.37.12-.9.25-1.58a.14.14,0,0,1,0-.06.2.2,0,0,1,.2-.15.19.19,0,0,1,.1,0,.18.18,0,0,1,.11.17,7.13,7.13,0,0,1-.1.84c-.09.66-.14,1.08-.14,1.28a2.58,2.58,0,0,0,.16,1c.13.3.31.45.55.45h.07a1,1,0,0,0,.55-.44,2.72,2.72,0,0,0,.45-1l.28-2.1,0-.09A.2.2,0,0,1,555,149.61Z" style="fill:#fafafa"></path><path d="M582.46,157.29c-.07,0-.12-2.51-.12-5.61s0-5.6.12-5.6.11,2.51.11,5.6S582.52,157.29,582.46,157.29Z" style="fill:#f5f5f5"></path><path d="M532.55,157.29c-.06,0-.12-2.51-.12-5.61s.06-5.6.12-5.6.11,2.51.11,5.6S532.61,157.29,532.55,157.29Z" style="fill:#e0e0e0"></path><path d="M583.53,157.29c-.07,0-.12-2.51-.12-5.61s.05-5.6.12-5.6.11,2.51.11,5.6S583.59,157.29,583.53,157.29Z" style="fill:#f5f5f5"></path><path d="M531.55,157.29c-.07,0-.12-2.51-.12-5.61s.05-5.6.12-5.6.11,2.51.11,5.6S531.61,157.29,531.55,157.29Z" style="fill:#e0e0e0"></path><path d="M567.67,147.92v0l6.44,5.2.06.05-.07,0-.86.23-5.44,1.42h0l-4.93-2.09-1.4-.6-.37-.16-.09,0,0,0h0l.1,0,.37.15,1.4.58,4.95,2.07h0l5.44-1.44.86-.22v.06L567.63,148h0" style="fill:#e0e0e0"></path><polygon points="573.52 152.29 573.87 152.63 574.35 152.52 574.14 152.96 574.38 153.38 573.9 153.32 573.58 153.68 573.49 153.2 573.05 153.01 573.47 152.78 573.52 152.29" style="fill:#e0e0e0"></polygon><polygon points="567.34 154.34 567.58 154.54 567.88 154.46 567.76 154.75 567.94 155.01 567.63 154.99 567.43 155.24 567.35 154.93 567.06 154.82 567.33 154.66 567.34 154.34" style="fill:#e0e0e0"></polygon><polygon points="560.51 151.54 560.89 151.57 561.13 151.26 561.22 151.64 561.58 151.77 561.26 151.97 561.25 152.36 560.95 152.11 560.58 152.22 560.72 151.86 560.51 151.54" style="fill:#e0e0e0"></polygon><polygon points="576.41 148.01 576.79 148.03 577.03 147.73 577.13 148.1 577.49 148.23 577.16 148.44 577.15 148.82 576.85 148.57 576.49 148.68 576.63 148.32 576.41 148.01" style="fill:#e0e0e0"></polygon><polygon points="567.36 147.75 567.6 147.77 567.75 147.58 567.81 147.81 568.04 147.9 567.84 148.03 567.83 148.27 567.64 148.12 567.4 148.19 567.49 147.96 567.36 147.75" style="fill:#e0e0e0"></polygon><path d="M577,148.27s-2.09,0-4.66-.15-4.65-.22-4.65-.24,2.08,0,4.66.15S577,148.25,577,148.27Z" style="fill:#e0e0e0"></path><path d="M611.63,169.75,565.17,128.9c.61-1.91,1.61-3.36,3.4-3.87L615,165.88A6,6,0,0,1,611.63,169.75Z" style="fill:#e0e0e0"></path><rect x="572.43" y="145.43" width="33.51" height="1.87" transform="translate(243.37 -352.61) rotate(41.32)" style="fill:#ebebeb"></rect><path d="M566.94,130.49a1.75,1.75,0,0,1,0-.79,4.56,4.56,0,0,1,.78-1.74,4.42,4.42,0,0,1,1.44-1.27,1.61,1.61,0,0,1,.74-.28s-.27.15-.66.41a5.17,5.17,0,0,0-1.33,1.27,5,5,0,0,0-.81,1.65A7.28,7.28,0,0,1,566.94,130.49Z" style="fill:#e0e0e0"></path><path d="M567.94,131.37a1.86,1.86,0,0,1,0-.79,4.41,4.41,0,0,1,.78-1.74,4.5,4.5,0,0,1,1.43-1.27,1.77,1.77,0,0,1,.74-.28,4.75,4.75,0,0,1-.66.42,5.18,5.18,0,0,0-2.14,2.91A4.64,4.64,0,0,1,567.94,131.37Z" style="fill:#e0e0e0"></path><path d="M609.81,168a11.35,11.35,0,0,0,2-1.61,10.76,10.76,0,0,0,1.36-2.16,4.52,4.52,0,0,1-1.19,2.31A4.63,4.63,0,0,1,609.81,168Z" style="fill:#f5f5f5"></path><path d="M609,167.26c0-.06.87-.7,1.77-1.73s1.42-2,1.48-2a6.09,6.09,0,0,1-1.31,2.13A6,6,0,0,1,609,167.26Z" style="fill:#f5f5f5"></path><rect x="676.32" y="70.92" width="22.03" height="23.36" transform="translate(193.76 -402.82) rotate(37.67)" style="fill:#ebebeb"></rect><rect x="693.67" y="84.32" width="22.03" height="23.36" transform="translate(205.56 -410.63) rotate(37.67)" style="fill:#f5f5f5"></rect><path d="M681.81,71.73Q699,85.38,716.58,98.61a.23.23,0,0,0,.28-.37q-17.22-13.6-34.8-26.83a.2.2,0,0,0-.25.32Z" style="fill:#e0e0e0"></path><rect x="601.28" y="93.44" width="40.02" height="19.04" transform="translate(-0.54 3.33) rotate(-0.31)" style="fill:#ebebeb"></rect><rect x="641.1" y="93.23" width="40.02" height="19.04" transform="translate(-0.54 3.54) rotate(-0.31)" style="fill:#f5f5f5"></rect><path d="M601.25,98.85c26.59.3,53.26,0,79.85-.4a.24.24,0,0,0,0-.47c-26.58-.14-53.26-.12-79.84.46a.21.21,0,0,0,0,.41Z" style="fill:#e0e0e0"></path><rect x="583.49" y="200.24" width="40.02" height="19.04" transform="matrix(1, -0.01, 0.01, 1, -1.12, 3.24)" style="fill:#ebebeb"></rect><rect x="623.31" y="200.02" width="40.02" height="19.04" transform="translate(-1.11 3.45) rotate(-0.31)" style="fill:#f5f5f5"></rect><path d="M583.46,205.64c26.59.3,53.26,0,79.85-.39a.24.24,0,0,0,0-.47c-26.59-.14-53.27-.13-79.85.46a.2.2,0,0,0,0,.4Z" style="fill:#e0e0e0"></path><rect x="620.93" y="53.24" width="10.09" height="50.23" transform="translate(959.49 -457.15) rotate(114.78)" style="fill:#e0e0e0"></rect><rect x="576.28" y="64.91" width="15.69" height="55.98" transform="translate(421.97 -475.9) rotate(65.05)" style="fill:#f5f5f5"></rect><path d="M603,92.61a57.76,57.76,0,0,1-3.51-7,57,57,0,0,1-3-7.24,56.9,56.9,0,0,1,3.52,7A55,55,0,0,1,603,92.61Z" style="fill:#e0e0e0"></path><path d="M605.1,91.63a56.9,56.9,0,0,1-3.52-7,56.68,56.68,0,0,1-3-7.24,56.9,56.9,0,0,1,3.52,7A56.68,56.68,0,0,1,605.1,91.63Z" style="fill:#e0e0e0"></path><path d="M569.54,107.94a57.18,57.18,0,0,1-3.52-7,55.62,55.62,0,0,1-3-7.24,56.24,56.24,0,0,1,3.51,7A58.43,58.43,0,0,1,569.54,107.94Z" style="fill:#e0e0e0"></path><path d="M571.68,107a55.54,55.54,0,0,1-3.52-7,54.76,54.76,0,0,1-3-7.25,57.76,57.76,0,0,1,3.51,7A58.43,58.43,0,0,1,571.68,107Z" style="fill:#e0e0e0"></path><path d="M573.17,97.92c-.06-.13,5-2.6,11.36-5.5s11.51-5.15,11.58-5-5,2.61-11.36,5.51S573.24,98.06,573.17,97.92Z" style="fill:#e0e0e0"></path><rect x="553.06" y="56.23" width="10.09" height="69.08" transform="translate(405 -453.55) rotate(65.05)" style="fill:#ebebeb"></rect><path d="M579.88,83.61a2.9,2.9,0,1,1,1.43-3.85A2.89,2.89,0,0,1,579.88,83.61Z" style="fill:#e0e0e0"></path><rect x="551.85" y="72.32" width="1.79" height="41.1" transform="translate(406.69 -448.26) rotate(65.36)" style="fill:#e0e0e0"></rect><rect x="531.52" y="169.51" width="177.72" height="6.08" style="fill:#e0e0e0"></rect><rect x="531.52" y="111.84" width="177.72" height="6.08" style="fill:#e0e0e0"></rect><rect x="567.79" y="219.42" width="141.45" height="5.74" style="fill:#e0e0e0"></rect><rect x="613.6" y="116.73" width="6.78" height="57.37" style="fill:#e0e0e0"></rect><rect x="567.83" y="169.51" width="6.78" height="55.62" style="fill:#e0e0e0"></rect><path d="M665.43,166.66l-5-5.29s-4.44,8.66-12.61,7-8.53-7.6-7.27-13.72,4.25-11.62,12.36-9.69,9.59,10.22,9.59,10.22l5.89-2.78Z" style="fill:#f5f5f5"></path></g><g id="freepik--Plant--inject-77"><rect x="618.46" y="404.31" width="64.17" height="8.82" transform="translate(-70.59 143.71) rotate(-11.96)" style="fill:#263238"></rect><path d="M683,406.47l-63,13.35L618.11,411l63-13.35Zm-62.83,13.09,62.57-13.26-1.79-8.41-62.56,13.26Z" style="fill:#263238"></path><polygon points="625.28 415.58 643.76 458.25 677.2 451.17 677.1 407.61 625.28 415.58" style="fill:#263238"></polygon><path d="M648.77,412c-.13,0-4.66-20.6-10.13-46.05s-9.8-46.12-9.68-46.15,4.66,20.59,10.13,46.05S648.89,411.94,648.77,412Z" style="fill:#263238"></path><path d="M651.8,357.32a2.26,2.26,0,0,1-.06.52c-.08.38-.17.86-.28,1.45q-.09.48-.21,1c0,.39-.11.81-.17,1.26s-.13.94-.2,1.45-.08,1.06-.14,1.63a63.29,63.29,0,0,0-.12,8.06,95.14,95.14,0,0,0,1.06,9.82A131.69,131.69,0,0,0,655.9,400c.67,2.2,1.26,4,1.68,5.19.18.57.34,1,.46,1.41a1.81,1.81,0,0,1,.13.5,3,3,0,0,1-.22-.47c-.14-.37-.32-.82-.54-1.38-.47-1.21-1.1-3-1.82-5.15a117.14,117.14,0,0,1-4.36-17.48,87.94,87.94,0,0,1-1-9.87,59.06,59.06,0,0,1,.22-8.11c.06-.57.1-1.12.18-1.64s.16-1,.23-1.45.14-.87.21-1.26.17-.73.24-1c.15-.59.27-1.07.37-1.45A2.53,2.53,0,0,1,651.8,357.32Z" style="fill:#263238"></path><path d="M646.66,341a6.36,6.36,0,0,1-.06.72l-.24,2.06c-.06.45-.12.94-.19,1.48s-.1,1.14-.15,1.78c-.12,1.27-.25,2.72-.31,4.33q-.06,1.2-.12,2.52c0,.88,0,1.79,0,2.74-.06,1.89,0,3.91.07,6,.18,4.25.53,8.91,1.12,13.79s1.41,9.48,2.24,13.65,1.71,7.9,2.55,11c.39,1.56.79,3,1.13,4.19s.65,2.3.91,3.16.44,1.49.59,2a6.56,6.56,0,0,1,.17.7,3.14,3.14,0,0,1-.26-.68c-.17-.48-.39-1.14-.67-2s-.62-1.91-1-3.13-.79-2.63-1.2-4.18c-.88-3.11-1.76-6.84-2.66-11s-1.65-8.8-2.27-13.69-.94-9.56-1.09-13.82c0-2.14-.1-4.16,0-6.06,0-.95,0-1.86.06-2.74s.11-1.72.16-2.53c.07-1.61.23-3.06.37-4.34.07-.63.13-1.22.19-1.77s.16-1,.23-1.48c.14-.86.25-1.54.33-2.05A3.27,3.27,0,0,1,646.66,341Z" style="fill:#263238"></path><path d="M645.57,416.46a.92.92,0,0,1-.09-.23c-.05-.18-.12-.41-.21-.7-.18-.65-.44-1.55-.76-2.7l-2.76-9.92c-2.34-8.38-5.62-20-9.78-32.55-2.1-6.29-4.24-12.24-6.3-17.61-1.06-2.67-2-5.22-3-7.57s-1.92-4.55-2.8-6.54-1.71-3.77-2.43-5.34-1.37-2.91-1.9-4l-1.22-2.52c-.13-.27-.23-.49-.31-.67l-.09-.23a.87.87,0,0,1,.14.21l.34.64,1.3,2.49c.56,1.08,1.23,2.41,2,4s1.62,3.33,2.49,5.32S622,342.67,623,345s2,4.9,3.08,7.57c2.08,5.37,4.24,11.32,6.34,17.62,4.17,12.61,7.4,24.2,9.66,32.6,1.13,4.2,2,7.61,2.62,10,.29,1.15.52,2.06.68,2.72.07.29.13.52.17.71A1.12,1.12,0,0,1,645.57,416.46Z" style="fill:#263238"></path><path d="M630.81,329.75c-.89-2.87-4.31-4.45-7.26-3.86a10,10,0,0,0-6.61,5.64,23.79,23.79,0,0,0-1.91,8.76c-.52,7.31-.07,14.78,2.29,21.72s6.73,13.34,12.91,17.29c1,.64,2.25,1.23,3.34.75a4,4,0,0,0,1.4-1.33,48.67,48.67,0,0,0,7.77-39.45c-.65-2.69-1.61-5.43-3.58-7.37s-6-3.6-8.35-2.15" style="fill:#407BFF"></path><path d="M603.91,311l-2.55,8.38c-.06.19-.15.41-.34.47s-.42-.1-.58-.26l-14.5-14.48,2.22-2Z" style="fill:#407BFF"></path><g style="opacity:0.2"><path d="M603.91,311l-2.55,8.38c-.06.19-.15.41-.34.47s-.42-.1-.58-.26l-14.5-14.48,2.22-2Z"></path></g><path d="M629,319.77l-42-14.12a1.33,1.33,0,0,1-.75-2.36,26.29,26.29,0,0,1,18.28-12.06,23.29,23.29,0,0,1,20.41,7.39c5,5.68,6.89,14.16,4.05,21.15" style="fill:#407BFF"></path><path d="M590.86,297.48a2.58,2.58,0,0,1,.48-.16c.32-.09.78-.25,1.39-.37a28.72,28.72,0,0,1,5.27-.69,30.58,30.58,0,0,1,24.32,10.26,30.81,30.81,0,0,1,4.47,6.49,29.08,29.08,0,0,1,2,4.91c.19.6.2.76.29,1.08a1.83,1.83,0,0,1-.12.87,6.61,6.61,0,0,0-.34-1.89,32.56,32.56,0,0,0-2.13-4.82A31.15,31.15,0,0,0,598,296.59a32.47,32.47,0,0,0-5.24.53A19,19,0,0,1,590.86,297.48Z" style="fill:#263238"></path><path d="M620.69,305.64a9.85,9.85,0,0,1-1.71,1.25c-1.08.72-2.62,1.68-4.35,2.66s-3.34,1.82-4.52,2.38a8.73,8.73,0,0,1-2,.82,10.26,10.26,0,0,1,1.8-1.11l4.44-2.49,4.42-2.53A9.9,9.9,0,0,1,620.69,305.64Z" style="fill:#263238"></path><path d="M611.47,291.09a27,27,0,0,1,2,8.3,24.91,24.91,0,0,1-1.1-4.12A25.09,25.09,0,0,1,611.47,291.09Z" style="fill:#263238"></path><path d="M586.56,305.3a18,18,0,0,1,2.51-1.53c1.58-.88,3.8-2,6.3-3.23s4.8-2.19,6.48-2.87a19.58,19.58,0,0,1,2.77-1A19.27,19.27,0,0,1,602,298c-1.65.75-3.92,1.79-6.41,3s-4.73,2.3-6.35,3.11A19.37,19.37,0,0,1,586.56,305.3Z" style="fill:#263238"></path><path d="M614,326.68c-3.73-1.75-7.22-1.51-11.22-.5a33,33,0,0,0-11,5.47c-5.71,4.09-10.77,9.41-13.31,16s-2.24,14.44,1.9,20.11A2.89,2.89,0,0,0,582,369a3.13,3.13,0,0,0,2.07-.61c6.66-3.85,13.37-7.74,19.18-12.79s10.72-11.4,12.84-18.8a13.55,13.55,0,0,0,.62-5.47,6.52,6.52,0,0,0-2.7-4.64" style="fill:#407BFF"></path><path d="M613.88,325.92a2.53,2.53,0,0,1-.47.31l-1.39.84-1,.59-1.16.76c-.83.56-1.81,1.15-2.8,1.92-.51.38-1,.77-1.59,1.17s-1.08.89-1.65,1.35c-1.17.91-2.31,2-3.53,3.13a64.95,64.95,0,0,0-12.85,17.24c-.72,1.49-1.44,2.89-2,4.27-.29.68-.59,1.33-.82,2s-.46,1.27-.67,1.86c-.46,1.17-.74,2.27-1,3.22-.14.48-.29.93-.4,1.34s-.19.79-.28,1.13c-.16.65-.3,1.17-.4,1.58a4.29,4.29,0,0,1-.17.54,2.09,2.09,0,0,1,.08-.56c.08-.41.19-.94.32-1.6l.24-1.15c.1-.41.23-.86.36-1.34.28-1,.54-2.08,1-3.27.21-.6.42-1.22.65-1.87s.52-1.31.8-2c.53-1.39,1.24-2.81,2-4.31A62.78,62.78,0,0,1,600,335.68c1.24-1.12,2.4-2.21,3.58-3.11.58-.46,1.12-.93,1.68-1.34l1.61-1.15c1-.76,2-1.33,2.85-1.87.43-.27.82-.52,1.19-.74l1-.56,1.44-.76A1.9,1.9,0,0,1,613.88,325.92Z" style="fill:#263238"></path><path d="M591.68,344.81A77,77,0,0,1,584.4,349a78.7,78.7,0,0,1-7.49,3.77,77,77,0,0,1,7.28-4.17A74.68,74.68,0,0,1,591.68,344.81Z" style="fill:#263238"></path><path d="M595,362.11a12.74,12.74,0,0,1-.69-2.4c-.36-1.49-.81-3.57-1.23-5.88s-.74-4.41-.93-5.94a11.85,11.85,0,0,1-.2-2.48,14.4,14.4,0,0,1,.52,2.43c.3,1.66.66,3.68,1.06,5.91s.79,4.24,1.1,5.89A14.26,14.26,0,0,1,595,362.11Z" style="fill:#263238"></path><path d="M608.18,351.46c-.13,0-1.41-4.11-2.88-9.25s-2.56-9.34-2.44-9.38,1.41,4.11,2.88,9.26S608.3,351.43,608.18,351.46Z" style="fill:#263238"></path><path d="M585.71,336a14.57,14.57,0,0,1,2.49-.61c1.54-.31,3.68-.72,6-1.14s4.52-.78,6.08-1a14.06,14.06,0,0,1,2.54-.29,14.25,14.25,0,0,1-2.48.61c-1.55.31-3.69.72-6.06,1.14s-4.52.78-6.08,1A14.06,14.06,0,0,1,585.71,336Z" style="fill:#263238"></path><path d="M632,379.94a2.25,2.25,0,0,1-.16-.48c-.09-.38-.21-.85-.36-1.43-.33-1.23-.72-3-1.15-5.28s-.84-4.93-1.19-7.92-.6-6.32-.71-9.8,0-6.81.14-9.83.44-5.73.74-8,.59-4.09.83-5.35c.12-.59.22-1.07.29-1.44a2.44,2.44,0,0,1,.13-.5,2,2,0,0,1,0,.51c0,.38-.12.86-.2,1.46-.2,1.26-.44,3.09-.69,5.36s-.48,5-.64,8-.19,6.32-.1,9.79.36,6.78.66,9.77.71,5.67,1.1,7.92.73,4.05,1,5.3c.12.58.21,1.06.28,1.43A1.54,1.54,0,0,1,632,379.94Z" style="fill:#263238"></path><path d="M628.83,355.09a11.37,11.37,0,0,1-1.15,2c-.76,1.17-1.86,2.75-3.13,4.45s-2.48,3.21-3.39,4.27a9.75,9.75,0,0,1-1.55,1.64,11.92,11.92,0,0,1,1.3-1.85c.94-1.23,2.05-2.71,3.27-4.33l3.24-4.37A11.37,11.37,0,0,1,628.83,355.09Z" style="fill:#263238"></path><path d="M642.66,362.1a17.54,17.54,0,0,1-2.06-1.86l-4.82-4.6-4.9-4.53a16.75,16.75,0,0,1-2-1.93,14.93,14.93,0,0,1,2.19,1.69c1.32,1.09,3.1,2.65,5,4.44s3.57,3.46,4.74,4.7A16.77,16.77,0,0,1,642.66,362.1Z" style="fill:#263238"></path><path d="M630.13,333.48c.08.09-3.28,3.57-7.52,7.76s-7.75,7.52-7.83,7.44,3.27-3.57,7.51-7.76S630,333.4,630.13,333.48Z" style="fill:#263238"></path><path d="M643.72,343.08a73.77,73.77,0,0,1-7.1-4.22,74.93,74.93,0,0,1-6.85-4.62,150,150,0,0,1,14,8.84Z" style="fill:#263238"></path><path d="M646.45,342.25l3.31-1a17,17,0,0,0,6.37-3.52,28.12,28.12,0,0,1,2.83-2.27c3.81-2.55,8.52-3.24,13-4.41a56.35,56.35,0,0,0,20-9.89,2.06,2.06,0,0,0,.74-1c.43-1.41-1.09-2.26-2.34-2.71-6.42-2.29-13-4.61-19.75-5s-14.05,1.47-18.74,6.41c-5.51,5.8-5.93,15.41-5.38,23.39" style="fill:#407BFF"></path><path d="M692.65,319.71a4.57,4.57,0,0,1-.62-.15l-1.78-.49c-1.54-.44-3.76-1.09-6.53-1.77a56.49,56.49,0,0,0-9.88-1.58,30.93,30.93,0,0,0-12,1.55,20.65,20.65,0,0,0-9.8,6.92,24.64,24.64,0,0,0-4,9.07c-.64,2.78-.92,5.08-1.14,6.67l-.24,1.82a3.39,3.39,0,0,1-.11.64,2.93,2.93,0,0,1,0-.65q.06-.69.15-1.83a59.18,59.18,0,0,1,1-6.72,24.38,24.38,0,0,1,3.92-9.26,20.89,20.89,0,0,1,10-7.09,30.75,30.75,0,0,1,12.22-1.54,54.75,54.75,0,0,1,9.92,1.69c2.78.72,5,1.42,6.51,1.91l1.75.58A2.38,2.38,0,0,1,692.65,319.71Z" style="fill:#263238"></path><path d="M685.48,325.77c0,.12-5.05-1.8-11.19-4.28s-11.06-4.59-11-4.71,5.05,1.8,11.19,4.29S685.53,325.65,685.48,325.77Z" style="fill:#263238"></path><path d="M678,313.43a11,11,0,0,1-3.09,1.26,11.21,11.21,0,0,1-3.28.65,83.08,83.08,0,0,1,6.37-1.91Z" style="fill:#263238"></path><path d="M658.14,315a9,9,0,0,1-1,2.57,9.91,9.91,0,0,1-1.39,2.47,8.68,8.68,0,0,1,1-2.57A9.91,9.91,0,0,1,658.14,315Z" style="fill:#263238"></path><path d="M666,332.61a12,12,0,0,1-2.36-.7c-1.44-.5-3.4-1.27-5.52-2.21s-4-1.87-5.37-2.55a12.17,12.17,0,0,1-2.16-1.18,14.33,14.33,0,0,1,2.3.89l5.42,2.42c2.11.94,4,1.75,5.44,2.33A15.08,15.08,0,0,1,666,332.61Z" style="fill:#263238"></path><path d="M654.45,355.52c-3.4-.17-6.56,3.77-6.54,7.16s2,6.47,4,9.17a50,50,0,0,0,17,14.57,33.59,33.59,0,0,0,21.9,3.18c-2.7-6-2.37-13-4.49-19.23a25.68,25.68,0,0,0-26.92-17.31c-2.09.21-4.54.39-4.95,2.46" style="fill:#407BFF"></path><path d="M690.81,389.6a2.75,2.75,0,0,1-.5-.12,8.58,8.58,0,0,1-1.38-.55,12.87,12.87,0,0,1-4.07-3.57c-.72-.89-1.52-1.85-2.34-2.93L680,379a39.15,39.15,0,0,0-3-3.64,34.07,34.07,0,0,0-3.77-3.35c-2.75-2.12-5.58-3.86-8.08-5.56a46.62,46.62,0,0,1-6.32-5,23.67,23.67,0,0,1-3.46-4.18,14.53,14.53,0,0,1-.72-1.29,1.68,1.68,0,0,1-.2-.47s.36.61,1.07,1.66a25.42,25.42,0,0,0,3.53,4,48.29,48.29,0,0,0,6.33,4.86c2.51,1.68,5.35,3.41,8.13,5.55a31.43,31.43,0,0,1,3.81,3.41,38.08,38.08,0,0,1,3,3.69l2.5,3.48c.79,1.07,1.58,2.05,2.28,2.94a13.17,13.17,0,0,0,3.91,3.62C690.13,389.38,690.83,389.55,690.81,389.6Z" style="fill:#263238"></path><path d="M673.08,387.87a10.18,10.18,0,0,1-.16-2.22c0-1.38,0-3.28.13-5.38s.37-4,.57-5.35a9.61,9.61,0,0,1,.46-2.18A13,13,0,0,1,674,375c-.13,1.37-.3,3.25-.44,5.34s-.22,4-.27,5.35A11,11,0,0,1,673.08,387.87Z" style="fill:#263238"></path><path d="M685.81,369a13,13,0,0,1-2.38,0c-1.46-.07-3.47-.16-5.7-.18s-4.25,0-5.71,0a14.59,14.59,0,0,1-2.38,0,11.45,11.45,0,0,1,2.36-.31c1.46-.11,3.49-.2,5.73-.17s4.27.17,5.73.32A11.29,11.29,0,0,1,685.81,369Z" style="fill:#263238"></path><path d="M658.83,379.41a13.39,13.39,0,0,1-.18-2.58c0-1.59,0-3.79.07-6.22s.32-4.63.51-6.21a13.29,13.29,0,0,1,.42-2.55,16.14,16.14,0,0,1-.1,2.58c-.11,1.58-.26,3.77-.37,6.2s-.17,4.61-.21,6.2A16.55,16.55,0,0,1,658.83,379.41Z" style="fill:#263238"></path><path d="M675.58,357.06c0,.12-4.07.65-9.12,1.17a91.77,91.77,0,0,1-9.16.72,91,91,0,0,1,9.12-1.17A88.31,88.31,0,0,1,675.58,357.06Z" style="fill:#263238"></path><path d="M682.94,406.33c0,.12-14.05,3.21-31.44,6.89S620,419.8,620,419.67s14-3.21,31.44-6.89S682.92,406.2,682.94,406.33Z" style="fill:#455a64"></path><path d="M677,426.55c0,.13-9.46,2.24-21.17,4.72s-21.25,4.4-21.27,4.27,9.45-2.23,21.17-4.72S677,426.43,677,426.55Z" style="fill:#455a64"></path><path d="M677.16,429.23c0,.12-9.29,2.2-20.8,4.64s-20.88,4.31-20.9,4.19,9.28-2.2,20.8-4.64S677.13,429.1,677.16,429.23Z" style="fill:#455a64"></path><path d="M676.9,424.34c0,.12-9.79,2.3-21.91,4.87s-22,4.55-22,4.43,9.78-2.31,21.9-4.88S676.87,424.21,676.9,424.34Z" style="fill:#455a64"></path><polygon points="651.75 451.6 657.02 458.61 700.51 457.93 706.55 450.75 651.75 451.6" style="fill:#455a64"></polygon></g><g id="freepik--Floor--inject-77"><path d="M703.29,458.07c0,.14-147,.26-328.27.26s-328.31-.12-328.31-.26,147-.26,328.31-.26S703.29,457.92,703.29,458.07Z" style="fill:#263238"></path></g><g id="freepik--Pictures--inject-77"><rect x="405.68" y="63.42" width="87.89" height="127.39" transform="translate(-12.39 57.4) rotate(-7.21)" style="fill:#263238"></rect><rect x="401.31" y="63.97" width="87.89" height="127.39" transform="translate(-12.5 56.86) rotate(-7.21)" style="fill:#455a64"></rect><rect x="412.23" y="77.77" width="66.05" height="99.79" transform="translate(-12.5 56.86) rotate(-7.21)" style="fill:#fff"></rect><path d="M484.27,173s0-.17-.07-.48-.11-.8-.19-1.4c-.16-1.25-.4-3.07-.71-5.43-.62-4.75-1.51-11.66-2.64-20.39-2.23-17.45-5.4-42.17-9.12-71.28l.24.19-65.51,8.3h0l.21-.27c4.7,37.35,9,71.79,12.47,99l-.22-.16,47.71-5.93,13.18-1.62,3.47-.42,1.19-.13-1.15.17-3.42.45-13.13,1.71-47.8,6.14-.19,0,0-.19c-3.46-27.22-7.83-61.65-12.57-99l0-.24.24,0h0l65.52-8.26.22,0,0,.22c3.65,29.17,6.74,54,8.93,71.45,1.08,8.71,1.93,15.61,2.51,20.35q.43,3.52.66,5.39c.07.6.12,1.06.16,1.38S484.27,173,484.27,173Z" style="fill:#263238"></path><path d="M481.1,58.93a13.65,13.65,0,0,1-1.27,2.46c-.84,1.48-2,3.51-3.43,5.71s-2.7,4.15-3.68,5.55a13.78,13.78,0,0,1-1.67,2.2,17.91,17.91,0,0,1,1.39-2.39L476,66.84l3.55-5.63A18.26,18.26,0,0,1,481.1,58.93Z" style="fill:#263238"></path><path d="M497.8,185.52a13.62,13.62,0,0,1-2.22-1.56,64.47,64.47,0,0,1-4.92-4.32c-1.84-1.79-3.39-3.51-4.47-4.8a12.87,12.87,0,0,1-1.62-2.17,17.36,17.36,0,0,1,1.88,2c1.13,1.23,2.71,2.9,4.54,4.68s3.55,3.3,4.81,4.4A16,16,0,0,1,497.8,185.52Z" style="fill:#263238"></path><path d="M409.62,196.27l9.64-15.53" style="fill:#fff"></path><path d="M419.26,180.74a89.6,89.6,0,0,1-4.62,7.89,87.82,87.82,0,0,1-5,7.64,88.28,88.28,0,0,1,4.62-7.89A87.82,87.82,0,0,1,419.26,180.74Z" style="fill:#263238"></path><path d="M393.67,70a80.57,80.57,0,0,1,6.38,5.93,77.52,77.52,0,0,1,6,6.26,79.19,79.19,0,0,1-6.38-5.92A78.53,78.53,0,0,1,393.67,70Z" style="fill:#263238"></path><rect x="434.06" y="97.85" width="22.12" height="62.79" transform="translate(-12.7 56.86) rotate(-7.21)" style="fill:#263238"></rect><rect x="267.04" y="96.68" width="65.62" height="68.4" transform="translate(26.31 -48.61) rotate(9.69)" style="fill:#263238"></rect><rect x="262.66" y="95.93" width="65.62" height="68.4" transform="translate(26.12 -47.88) rotate(9.69)" style="fill:#455a64"></rect><path d="M322.07,169.39l-64.72-11,11.52-67.47,64.72,11Z" style="fill:#455a64"></path><rect x="271.48" y="105.12" width="47.98" height="50.01" transform="translate(26.12 -47.88) rotate(9.69)" style="fill:#fafafa"></rect><path d="M267.56,151.07a7.74,7.74,0,0,1-1.4,1.15c-.89.67-2.14,1.57-3.53,2.54s-2.66,1.83-3.59,2.43a7.87,7.87,0,0,1-1.56.9,8,8,0,0,1,1.39-1.15c.89-.67,2.14-1.57,3.53-2.54s2.67-1.83,3.6-2.43A7.28,7.28,0,0,1,267.56,151.07Z" style="fill:#263238"></path><path d="M314.87,159a8,8,0,0,1,1.16,1.4c.67.89,1.56,2.14,2.53,3.53s1.83,2.66,2.43,3.59a7.67,7.67,0,0,1,.91,1.56,7.22,7.22,0,0,1-1.16-1.39c-.66-.89-1.56-2.14-2.54-3.53s-1.83-2.67-2.43-3.6A7.87,7.87,0,0,1,314.87,159Z" style="fill:#263238"></path><path d="M323.17,109.63a8,8,0,0,1,1.4-1.16c.89-.67,2.14-1.57,3.53-2.54s2.66-1.82,3.59-2.43a7.87,7.87,0,0,1,1.56-.9,7.44,7.44,0,0,1-1.39,1.15c-.89.67-2.14,1.57-3.53,2.54s-2.67,1.83-3.6,2.44A7.87,7.87,0,0,1,323.17,109.63Z" style="fill:#263238"></path><path d="M275.86,101.67a8,8,0,0,1-1.16-1.4c-.67-.89-1.56-2.13-2.53-3.52s-1.83-2.67-2.43-3.6a7.38,7.38,0,0,1-.91-1.56A7.65,7.65,0,0,1,270,93c.66.89,1.56,2.14,2.53,3.54s1.84,2.66,2.44,3.6A7.67,7.67,0,0,1,275.86,101.67Z" style="fill:#263238"></path><path d="M314.78,158.79a.74.74,0,0,1,0-.24c0-.17.06-.39.1-.69.1-.62.25-1.51.44-2.66.39-2.34.95-5.74,1.67-10.06,1.45-8.64,3.52-20.94,6-35.68l.15.22-47.16-8h0l.24-.17c-3.1,18.09-6,35-8.45,49.29l-.15-.21,34.14,5.92,9.58,1.69,2.54.45.65.12.23,0s-.07,0-.21,0l-.64-.1-2.51-.41-9.56-1.58-34.28-5.76-.18,0,0-.18,8.39-49.3,0-.21.21,0h0l47.16,8.08.18,0,0,.19c-2.56,14.77-4.7,27.1-6.21,35.76-.75,4.29-1.34,7.67-1.75,10-.21,1.13-.36,2-.47,2.62-.05.28-.1.5-.13.67A1.3,1.3,0,0,1,314.78,158.79Z" style="fill:#263238"></path><rect x="287.46" y="122.12" width="16.01" height="16.01" transform="translate(26.12 -47.88) rotate(9.69)" style="fill:#263238"></rect></g><g id="freepik--Character--inject-77"><rect x="499.08" y="432.53" width="20.36" height="25.54" style="fill:#263238"></rect><rect x="262.92" y="432.53" width="20.36" height="25.54" style="fill:#263238"></rect><path d="M523.89,354h.05l-2-37.85c-1.2-20.41-7-31.66-21-32.81h0c-9.53,0-18.16,3-23.9,11.06a65.38,65.38,0,0,0-65.35-63.74H363.25a65.4,65.4,0,0,0-65.4,65.4v13.8a25.57,25.57,0,0,0-25.57-25.58h-1.9c-9.58,0-19.39,15.86-19.39,25.44V354a20.85,20.85,0,0,0-8.59,16.85v27.25a9.87,9.87,0,0,0,9.88,9.87H251v32.66h276.3V409A12.51,12.51,0,0,0,536.5,397V374.44A22.94,22.94,0,0,0,523.89,354Z" style="fill:#455a64"></path><path d="M302.4,328.71c-.15,0-.26,0-.26-.07s.11-.07.26-.07.26,0,.26.07S302.54,328.71,302.4,328.71Z" style="fill:#263238"></path><path d="M528.06,410.22c0,.14-61.67.26-137.72.26s-137.73-.12-137.73-.26,61.66-.26,137.73-.26S528.06,410.07,528.06,410.22Z" style="fill:#263238"></path><path d="M298.13,349.29a1.41,1.41,0,0,1-.49,0l-1.41-.13c-.6-.07-1.35-.15-2.21-.21s-1.85-.16-2.94-.2c-2.18-.12-4.78-.16-7.67-.07a86.44,86.44,0,0,0-18.55,2.63c-2.79.72-5.28,1.48-7.34,2.21-1,.33-1.95.71-2.77,1s-1.51.57-2.07.81l-1.31.52a2.41,2.41,0,0,1-.47.15s.14-.1.43-.25l1.27-.61c.55-.26,1.24-.57,2.05-.89s1.71-.73,2.75-1.09c2.05-.78,4.54-1.57,7.34-2.33A91.43,91.43,0,0,1,274,349a86.21,86.21,0,0,1,9.41-.77,76.5,76.5,0,0,1,7.7.19c1.1.05,2.08.18,2.95.27s1.6.2,2.21.3l1.39.23A2.7,2.7,0,0,1,298.13,349.29Z" style="fill:#263238"></path><path d="M395.8,377.09c-.11,0,.35-1.79.35-4.69a23.81,23.81,0,0,0-9.8-19.42c-2.34-1.72-4-2.4-4-2.49a4.75,4.75,0,0,1,1.19.46,19.79,19.79,0,0,1,3,1.73,23,23,0,0,1,10,19.72,20.56,20.56,0,0,1-.39,3.46A5.82,5.82,0,0,1,395.8,377.09Z" style="fill:#263238"></path><path d="M452.62,366.5a18.84,18.84,0,0,1-.53-1.88,25.93,25.93,0,0,0-1.95-4.92,26.27,26.27,0,0,0-4.57-6.34,24.52,24.52,0,0,0-17.12-7.53,26.16,26.16,0,0,0-7.76.91,25.46,25.46,0,0,0-4.95,1.89c-1.11.56-1.71.92-1.74.88a1.92,1.92,0,0,1,.41-.3c.28-.17.68-.47,1.24-.76a22.39,22.39,0,0,1,4.94-2.06,25.6,25.6,0,0,1,7.88-1,25.28,25.28,0,0,1,22,14.18,23.6,23.6,0,0,1,1.82,5c.17.61.21,1.1.28,1.43A2.36,2.36,0,0,1,452.62,366.5Z" style="fill:#263238"></path><path d="M456.16,345.36c0,.15-5.66.26-12.64.26s-12.63-.11-12.63-.26,5.65-.26,12.63-.26S456.16,345.22,456.16,345.36Z" style="fill:#263238"></path><path d="M522.93,356.21a3.26,3.26,0,0,1-.58-.28l-1.63-.88c-.7-.39-1.56-.86-2.59-1.35s-2.16-1.12-3.48-1.69-2.73-1.25-4.3-1.86-3.26-1.24-5-1.88a104.85,104.85,0,0,0-11.89-3.22,103.63,103.63,0,0,0-12.2-1.66c-1.89-.11-3.69-.24-5.37-.23s-3.26,0-4.69,0-2.72.13-3.86.2-2.12.15-2.91.24l-1.84.17a5.28,5.28,0,0,1-.65,0,2.31,2.31,0,0,1,.63-.13l1.83-.27c.8-.12,1.78-.25,2.92-.33s2.43-.25,3.87-.28,3-.13,4.7-.09,3.5.09,5.4.18a90.87,90.87,0,0,1,24.21,4.91c1.79.65,3.5,1.25,5.05,1.94s3,1.29,4.3,1.92,2.44,1.23,3.46,1.76,1.86,1,2.55,1.44l1.58,1A2.24,2.24,0,0,1,522.93,356.21Z" style="fill:#263238"></path><path d="M480.25,292.33s-.11.17-.37.45-.64.68-1.11,1.22a54.44,54.44,0,0,0-3.79,4.75,58.61,58.61,0,0,0-4.57,7.76c-1.51,3-2.93,6.51-4.32,10.17a86.17,86.17,0,0,0-4.78,19.45c-.31,2.55-.44,4.63-.53,6.06,0,.68,0,1.22-.07,1.66a4.5,4.5,0,0,1-.06.58,2,2,0,0,1,0-.58c0-.38,0-.94,0-1.66,0-1.45.1-3.53.36-6.1a80.62,80.62,0,0,1,4.66-19.59A108.82,108.82,0,0,1,470,306.3a54.44,54.44,0,0,1,4.7-7.76,45.22,45.22,0,0,1,3.94-4.68c.5-.52.92-.89,1.19-1.16S480.24,292.31,480.25,292.33Z" style="fill:#263238"></path><path d="M352.77,277.18s.06-.09.19-.22a3.07,3.07,0,0,1,.67-.51,5,5,0,0,1,5.05.1,4.34,4.34,0,0,1,1.63,1.89,4.8,4.8,0,0,1-6.14,6.58,4.31,4.31,0,0,1-2-1.5,4.76,4.76,0,0,1-.84-2,4.85,4.85,0,0,1,.39-3,3.5,3.5,0,0,1,.46-.7c.13-.14.2-.21.21-.2s-.22.34-.48,1a4.88,4.88,0,0,0-.22,2.88,4.16,4.16,0,0,0,2.65,3.11,4.34,4.34,0,0,0,5.53-5.94,4.12,4.12,0,0,0-3.29-2.42,4.89,4.89,0,0,0-2.86.42C353.1,276.94,352.81,277.22,352.77,277.18Z" style="fill:#263238"></path><path d="M355.8,263c.05.08-.67.5-1.52,1.5a7.56,7.56,0,0,0-.42,9.37c.75,1.07,1.43,1.56,1.37,1.63a4.07,4.07,0,0,1-1.66-1.41,7.4,7.4,0,0,1,.44-9.83A4.12,4.12,0,0,1,355.8,263Z" style="fill:#263238"></path><path d="M357.48,286.62a11.19,11.19,0,0,1-1.64-.65,12.12,12.12,0,0,0-4.11-.77,11.9,11.9,0,0,0-4.12.68,12.65,12.65,0,0,1-1.66.61,4.21,4.21,0,0,1,1.52-1,10.49,10.49,0,0,1,4.27-.86,10.37,10.37,0,0,1,4.24,1A4.17,4.17,0,0,1,357.48,286.62Z" style="fill:#263238"></path><path d="M270.54,347.72a5.73,5.73,0,0,1,.93-.93,21.45,21.45,0,0,1,2.89-2.11,23.7,23.7,0,0,1,22.74-1.12,20.66,20.66,0,0,1,3.09,1.82,4.89,4.89,0,0,1,1,.83c-.06.09-1.53-1.09-4.26-2.31a24.45,24.45,0,0,0-22.4,1.1C272,346.49,270.61,347.8,270.54,347.72Z" style="fill:#263238"></path><path d="M293.12,341.89c-.14,0-.42-5.1-.62-11.39s-.26-11.39-.11-11.4.42,5.09.63,11.39S293.27,341.88,293.12,341.89Z" style="fill:#263238"></path><path d="M476.49,342.86a2,2,0,0,1,0-.56c0-.42.1-.95.17-1.59.15-1.39.31-3.39.43-5.87s.18-5.45.26-8.74.24-6.92.71-10.7A46.14,46.14,0,0,1,480.61,305a30.24,30.24,0,0,1,4.18-7.72,22.19,22.19,0,0,1,4.13-4.23,14.12,14.12,0,0,1,1.32-.92,2.26,2.26,0,0,1,.48-.28,28.5,28.5,0,0,0-5.64,5.65,31.41,31.41,0,0,0-4,7.66,47.77,47.77,0,0,0-2.46,10.34c-.46,3.76-.62,7.37-.74,10.66s-.2,6.25-.37,8.74-.39,4.49-.6,5.87c-.09.69-.2,1.22-.27,1.58A2.41,2.41,0,0,1,476.49,342.86Z" style="fill:#263238"></path><path d="M371.17,230.64s11,3.7-3.37,9.38c0,0-4.12,8.46-4.12,12.51s5.07,23,5.07,23l20.7-4.59-2.23-14.8S422.85,267,432,273.64l21.31-28.07s-15.3-14.43-34.7-14.93C403.41,230.26,371.17,230.64,371.17,230.64Z" style="fill:#e0e0e0"></path><path d="M383.75,252c-.05.08-.92-.46-2.44-1.07a19.3,19.3,0,0,0-12.49-.6c-1.57.47-2.49.92-2.53.83s.2-.17.61-.39a11.58,11.58,0,0,1,1.81-.79,17.25,17.25,0,0,1,6.43-.91,17.06,17.06,0,0,1,6.31,1.52,12.12,12.12,0,0,1,1.73,1C383.56,251.85,383.77,252,383.75,252Z" style="fill:#263238"></path><path d="M433.94,238.26a5.1,5.1,0,0,1-.89.78c-.59.49-1.48,1.14-2.6,1.91a61.33,61.33,0,0,1-9.27,5.18,60.36,60.36,0,0,1-10,3.5c-1.32.33-2.39.56-3.14.68a4.86,4.86,0,0,1-1.18.15,5.43,5.43,0,0,1,1.13-.34c.74-.19,1.8-.47,3.1-.84a72.76,72.76,0,0,0,19.2-8.64c1.14-.73,2.06-1.33,2.68-1.76A6.51,6.51,0,0,1,433.94,238.26Z" style="fill:#263238"></path><path d="M436.24,238.72a8.75,8.75,0,0,1-1.36,1.92,31.67,31.67,0,0,1-4,4,30.57,30.57,0,0,1-4.69,3.19,8.09,8.09,0,0,1-2.14,1c-.08-.14,3.12-1.76,6.5-4.56S436.11,238.62,436.24,238.72Z" style="fill:#263238"></path><path d="M400.84,348c6.67,6,9.65,15,12.36,23.55,3,9.46,6,19.26,5.06,29.14-.55,5.47-2.31,10.75-3.17,16.19-1.31,8.26-.5,16.69.32,25,.27,2.78-.31,13.81,1.2,16.17,0,0,7.72,1.34,11.22,2.68,13,5,25.19,5.21,39.08,5.81a128.14,128.14,0,0,0,19.56-1.13l62.73-6.81c-6.48-3.72-14.5-3.15-21.89-2s-15,2.66-22.23.56c-4.76-1.39-9.07-4.34-14-4.93-3.61-.44-7.26.43-10.9.45s-7.7-1.1-9.5-4.26-.74-7.14-.43-10.79c.74-8.4-2.85-16.48-5.39-24.53a102,102,0,0,1-4.55-24.78c-.37-6.38-.14-12.8-.94-19.14s-2.61-11.35-6.75-16.21-17.36-5.87-24.19-5.68Z" style="fill:#ebebeb"></path><path d="M454.55,401a17.55,17.55,0,0,1-.34,1.87c-.24,1.2-.52,2.94-.75,5.11s-.38,4.76-.53,7.65-.31,6.07-.76,9.39a38.92,38.92,0,0,1-2.36,9.14,25,25,0,0,1-3.92,6.65A16.81,16.81,0,0,1,442,444.2a10,10,0,0,1-1.23.7,1.61,1.61,0,0,1-.45.2,21.8,21.8,0,0,0,5.29-4.58,25.27,25.27,0,0,0,3.75-6.59,39.63,39.63,0,0,0,2.3-9c.44-3.3.61-6.47.79-9.35s.36-5.49.65-7.66a43,43,0,0,1,.91-5.11c.13-.6.29-1,.37-1.36A3.07,3.07,0,0,1,454.55,401Z" style="fill:#e0e0e0"></path><path d="M415.37,354.1a4,4,0,0,1,.47.62c.3.41.74,1,1.26,1.82a56.73,56.73,0,0,1,3.86,7.19,55.74,55.74,0,0,1,4.49,26.34,68.36,68.36,0,0,1-2.91,14.52,104.54,104.54,0,0,0-2.92,11.69,32.93,32.93,0,0,0-.43,8.07,21.37,21.37,0,0,0,.26,2.19,6.84,6.84,0,0,1,.09.77,3.6,3.6,0,0,1-.19-.75,15.41,15.41,0,0,1-.36-2.19,30.74,30.74,0,0,1,.27-8.15,99.24,99.24,0,0,1,2.81-11.76A68.94,68.94,0,0,0,424.93,390a55.3,55.3,0,0,0-.84-14.65,56,56,0,0,0-3.47-11.5,61.2,61.2,0,0,0-3.69-7.23l-1.17-1.87A4.65,4.65,0,0,1,415.37,354.1Z" style="fill:#e0e0e0"></path><path d="M442.06,383.6c-.12,0,0-2.17-.4-5.62a27.74,27.74,0,0,0-.48-2.79c-.19-1-.51-2.05-.82-3.15a40.12,40.12,0,0,0-2.9-6.86,41,41,0,0,0-4.22-6.14c-.77-.85-1.47-1.69-2.22-2.38a27.15,27.15,0,0,0-2.1-1.91c-2.67-2.23-4.59-3.26-4.52-3.36a8.85,8.85,0,0,1,1.34.71,14.39,14.39,0,0,1,1.51,1,22.19,22.19,0,0,1,1.9,1.4,25.2,25.2,0,0,1,2.17,1.89,32.8,32.8,0,0,1,2.28,2.38,35.32,35.32,0,0,1,7.22,13.17c.3,1.12.61,2.18.78,3.2a28.12,28.12,0,0,1,.43,2.84c.13.87.12,1.67.16,2.36a14.9,14.9,0,0,1,0,1.79A10,10,0,0,1,442.06,383.6Z" style="fill:#e0e0e0"></path><path d="M288.52,410.39c-.85,2.3,1.54,5.33,3.87,6.09s4.89.62,7.17,1.51c3.6,1.42,5.75,5.12,7.08,8.75s2.17,7.54,4.42,10.69c1.58,2.22,4,4,6.77,4a8.72,8.72,0,0,0,6-3.13c4.33-4.66,5.41-11.64,9.73-16.31,1.56-1.69,3.51-3,4.88-4.88s2-4.52.75-6.42Z" style="fill:#407BFF"></path><path d="M332.94,410.2a6.25,6.25,0,0,1-.55,1.28c-.38.81-1,2-1.72,3.37a121.37,121.37,0,0,1-6.5,10.7c-2.75,4-5.48,7.53-7.54,10-1,1.22-1.89,2.19-2.51,2.85a8.7,8.7,0,0,1-1,1,6.67,6.67,0,0,1,.83-1.12l2.37-2.95c2-2.5,4.66-6,7.4-10s5-7.81,6.61-10.58l1.86-3.29A6.82,6.82,0,0,1,332.94,410.2Z" style="fill:#fff"></path><path d="M318.17,411.1a13.87,13.87,0,0,1-1.41,2.54c-.95,1.52-2.34,3.57-4,5.76s-3.26,4.07-4.47,5.4a14.05,14.05,0,0,1-2.06,2,20.24,20.24,0,0,1,1.78-2.29c1.13-1.38,2.68-3.3,4.33-5.47s3.07-4.18,4.1-5.65A18.63,18.63,0,0,1,318.17,411.1Z" style="fill:#fff"></path><path d="M299.68,410.67a12.58,12.58,0,0,1-1.85,3.11,12.45,12.45,0,0,1-2.28,2.82,25.3,25.3,0,0,1,4.13-5.93Z" style="fill:#fff"></path><path d="M350.88,301.17,328.6,249.12c-2.61-6.89-12.19-7.28-16.23-4.52L273.71,273,289,288.75l25.51-21.88L326.28,308Z" style="fill:#407BFF"></path><g style="opacity:0.30000000000000004"><path d="M305.34,274.75c.32-2.47-1.75-4.55-3.76-6s-4.31-3-4.8-5.46c-.17-.85-.09-1.72-.2-2.58a2.87,2.87,0,0,0-1.19-2.19c-1.33-.77-2.94.32-4,1.4-1.69,1.68-3.32,3.77-3.17,6.14.19,2.87,2.88,4.88,5.47,6.12a64,64,0,0,0,6.69,2.62c1.57.55,3.47,1,4.74,0"></path></g><path d="M317.88,329.23l-9.25-9.11-34.19,11.11,8.85-30-15.71-7.33s-12.85,31.91-15.36,38.42-2.25,21.41,8.11,23.64,57.85-10.21,57.85-10.21Z" style="fill:#407BFF"></path><g style="opacity:0.30000000000000004"><path d="M266.74,296c-.49,1.22.48,2.66,1.39,3.28a9.82,9.82,0,0,0,3.05,1.18,9.88,9.88,0,0,1,3,1.19c1.83,1.24,2.59,3.48,3.63,5.42a4,4,0,0,0,1.1,1.41,1.58,1.58,0,0,0,1.69.17,2.34,2.34,0,0,0,.88-1.5q.8-2.73,1.57-5.44"></path></g><path d="M297,270.13a18.13,18.13,0,0,0-24,5.18l-.54.77c-5.34,8.62-1,18,7.75,23.07l36,24.16c9.25-4.1,17.15-8.7,18.59-15.73l-14.55-10.69s4.36-8.82-3.53-14.52C312.84,279.62,304.54,274.59,297,270.13Z" style="fill:#ffbe9d"></path><path d="M320.17,296.88a22.61,22.61,0,0,1-10.25,8.3s7.47,1.69,12.34-6.75Z" style="fill:#eb996e"></path><path d="M297.65,279.79c-.07-.24,1.12-.77,1.86-2.07s.62-2.62.86-2.68.31.29.38.88a3.83,3.83,0,0,1-.5,2.25,3.64,3.64,0,0,1-1.68,1.54C298,279.93,297.68,279.9,297.65,279.79Z" style="fill:#263238"></path><path d="M290.34,291.42c0-.25,1.19-.67,2-1.9s.86-2.55,1.1-2.58.28.31.3.9a3.93,3.93,0,0,1-.7,2.2,3.72,3.72,0,0,1-1.81,1.38C290.72,291.59,290.36,291.53,290.34,291.42Z" style="fill:#263238"></path><path d="M303.61,288.7a10.09,10.09,0,0,1,1-2.24c.19-.33.34-.67.16-.87a1.91,1.91,0,0,0-1.07-.45l-3-.75c-4.29-1.1-7.72-2.13-7.68-2.3s3.56.58,7.85,1.68l3,.8a2.18,2.18,0,0,1,1.34.7,1,1,0,0,1,.1.83,2.7,2.7,0,0,1-.3.59A9.7,9.7,0,0,1,303.61,288.7Z" style="fill:#263238"></path><path d="M289,284c.24.36-.78,1.46-1.63,3s-1.28,3-1.71,3c-.21,0-.37-.44-.36-1.13a5.68,5.68,0,0,1,.75-2.57,5.76,5.76,0,0,1,1.79-2C288.44,284,288.89,283.88,289,284Z" style="fill:#263238"></path><path d="M296,272.16c.09.46-.93,1.29-1.82,2.53s-1.44,2.44-1.9,2.48c-.22,0-.38-.36-.32-1a5.06,5.06,0,0,1,1-2.4,4.92,4.92,0,0,1,2-1.64C295.59,271.89,296,272,296,272.16Z" style="fill:#263238"></path><path d="M286.5,302.64c-.16.1-5.46,4.33.1,8s8.08-2.69,7.92-2.8S286.5,302.64,286.5,302.64Z" style="fill:#ffbe9d"></path><path d="M291.3,308.14s0,.14,0,.36a1.16,1.16,0,0,1-.46.73,2.86,2.86,0,0,1-2.88-.3,3.79,3.79,0,0,1-1.2-1.19,1.32,1.32,0,0,1-.27-1.21.6.6,0,0,1,.64-.4c.21,0,.29.14.32.11s0-.18-.27-.28a.74.74,0,0,0-.49,0,.89.89,0,0,0-.5.44,1.64,1.64,0,0,0,.2,1.58,4,4,0,0,0,1.33,1.35,3,3,0,0,0,3.33.17,1.25,1.25,0,0,0,.43-1C291.43,308.24,291.32,308.13,291.3,308.14Z" style="fill:#eb996e"></path><path d="M293.76,294.48a.17.17,0,0,1-.23.07.18.18,0,0,1-.1-.22.19.19,0,0,1,.24-.08A.17.17,0,0,1,293.76,294.48Z" style="fill:#eb996e"></path><path d="M294.88,291.77a.19.19,0,0,1-.26.06.18.18,0,0,1-.12-.23.21.21,0,0,1,.38.17Z" style="fill:#eb996e"></path><path d="M296,290.17c-.05.08-.19.09-.32,0s-.2-.2-.16-.28.18-.08.32,0S296,290.09,296,290.17Z" style="fill:#eb996e"></path><path d="M296,294.36c-.05.07-.13.11-.18.07s-.05-.12,0-.19.13-.11.18-.08A.17.17,0,0,1,296,294.36Z" style="fill:#eb996e"></path><path d="M297.05,291.87a.19.19,0,0,1-.25.05.17.17,0,0,1-.07-.24.17.17,0,0,1,.24-.05A.19.19,0,0,1,297.05,291.87Z" style="fill:#eb996e"></path><path d="M303.56,279.78a.17.17,0,0,1-.23.08.18.18,0,0,1-.11-.23.19.19,0,0,1,.24-.07A.17.17,0,0,1,303.56,279.78Z" style="fill:#eb996e"></path><path d="M304.54,278.09a.18.18,0,0,1-.26,0,.19.19,0,0,1-.1-.25c0-.08.16-.09.26,0A.2.2,0,0,1,304.54,278.09Z" style="fill:#eb996e"></path><path d="M302.61,281.22a.14.14,0,1,1-.26-.12.16.16,0,0,1,.2-.09A.15.15,0,0,1,302.61,281.22Z" style="fill:#eb996e"></path><path d="M305,281.16a.18.18,0,0,1-.22.12.18.18,0,0,1-.16-.2.18.18,0,0,1,.22-.12A.19.19,0,0,1,305,281.16Z" style="fill:#eb996e"></path><path d="M305.72,279.61a.17.17,0,0,1-.22,0,.16.16,0,0,1,0-.21.17.17,0,0,1,.22,0A.16.16,0,0,1,305.72,279.61Z" style="fill:#eb996e"></path><path d="M303.27,293c0-.16,1.2-.67,2.46-1.7s2-2.14,2.18-2.05a4.8,4.8,0,0,1-1.84,2.47A4.73,4.73,0,0,1,303.27,293Z" style="fill:#263238"></path><path d="M289.28,257.9a4.18,4.18,0,0,1-1.08.66,2.52,2.52,0,0,1-1.92-.62,2,2,0,0,0-1.94-.4c-.83.44-.76,1.76-1.53,2.3s-1.82,0-2.77-.09a2.57,2.57,0,0,0-2.61,2.07c-.13.84.05,1.95-.72,2.32s-1.4-.27-2.13-.41a1.81,1.81,0,0,0-2.06,1.65c0,.75.35,1.71-.29,2.12s-1.35-.22-2,0a1.22,1.22,0,0,0-.62,1.37,8.69,8.69,0,0,0,.58,1.51,1.65,1.65,0,0,1-.07,1.56c-.36.47-1,.53-1.6.71-1.94.58-3,2.78-3,4.81a9.58,9.58,0,0,0,1,3.72,11.2,11.2,0,0,0-2.84,4.63c-1.18,3.95.37,8.73,4,10.76,1.68,1,3.65,1.28,5.43,2.05a43.7,43.7,0,0,1,5.83,3.65c1.94,1.24,3.78,2.27,6.06,2l1.5-1.39a4.47,4.47,0,0,0,.82,0c1-.15,2.05-.84,2-1.83a2.6,2.6,0,0,0-.8-1.52c-2.86-3.3-5.93-6.74-9.8-8.58a5.67,5.67,0,0,1-3.35-5.5,8.7,8.7,0,0,1,.35-2.15,5.48,5.48,0,0,1,1.14-1.78,5.78,5.78,0,0,1,3.94-1.76c1,0,2.23.19,3-.51s.67-2.11,1.27-3,1.92-1.25,3.05-1.52,2.42-.78,2.74-1.91-.33-2.09-.07-3.1A3.11,3.11,0,0,1,292.2,268a9.81,9.81,0,0,0,1.82-1.29,1.92,1.92,0,0,0,.52-2c-.36-.77-1.38-1.1-1.65-1.9s.21-1.46.34-2.19a2.59,2.59,0,0,0-4-2.64Z" style="fill:#263238"></path><path d="M276.28,300.72c-.06-.05.35-.58.82-1.52a10,10,0,0,0,1-3.93,9.77,9.77,0,0,0-.72-4,14.5,14.5,0,0,1-.7-1.59,3.61,3.61,0,0,1,1.05,1.43,8.72,8.72,0,0,1,.91,4.18,8.61,8.61,0,0,1-1.23,4.09C276.86,300.32,276.33,300.77,276.28,300.72Z" style="fill:#455a64"></path><path d="M278.17,302.39a11.83,11.83,0,0,0,2.06-10,3.24,3.24,0,0,1,.6,1.48,9.26,9.26,0,0,1,0,3.85,9,9,0,0,1-1.56,3.53C278.71,302.07,278.22,302.44,278.17,302.39Z" style="fill:#455a64"></path><path d="M540.28,275.61l22,13.38,26,3.56a3,3,0,0,1,2.08,3.77h0a2.92,2.92,0,0,1-1.91,1.9c-5.8,1.81-27.16,8.39-28.92,7.23-2-1.34-29.42-11.64-29.42-11.64Z" style="fill:#455a64"></path><path d="M560.23,305.61a1.49,1.49,0,0,1-.79-.14c-2-1.32-29.15-11.54-29.42-11.64h0l0,0,10.26-18.22h0L562.23,289l26,3.56a2.92,2.92,0,0,1,1.88,1.44,3,3,0,0,1-1.7,4.27C582.55,300.07,564.5,305.61,560.23,305.61ZM530.07,293.8c1,.37,27.4,10.32,29.39,11.63.75.49,5.09-.35,12.93-2.5,6.36-1.75,13.29-3.9,16-4.74a2.92,2.92,0,0,0-.17-5.61l-26-3.57-21.92-13.36Z" style="fill:#263238"></path><path d="M582,299.68s0,.09-.14.22l0,.05-.08-.05a5.89,5.89,0,0,1-2-3.93,6.29,6.29,0,0,1,.55-3.29c.37-.77.75-1.16.8-1.12s-.19.49-.46,1.26a7.38,7.38,0,0,0-.38,3.1,8.15,8.15,0,0,0,1.57,3.87h-.11C581.9,299.69,582,299.65,582,299.68Z" style="fill:#263238"></path><path d="M565.29,304.43a6.31,6.31,0,0,0-.86-1.55,4.21,4.21,0,0,0-1.52-1.1,5.92,5.92,0,0,0-2.29-.41,10.18,10.18,0,0,0-4.19.91,7.32,7.32,0,0,0-1.42,1.09s.21-.77,1.24-1.41a8.93,8.93,0,0,1,4.37-1.11,5.85,5.85,0,0,1,2.48.5,4.17,4.17,0,0,1,1.62,1.3A2.23,2.23,0,0,1,565.29,304.43Z" style="fill:#263238"></path><path d="M555.34,284.94a12.85,12.85,0,0,1-1.43,2.17c-1,1.45-2.27,3.18-3.63,5.1l-3.57,5.13a13.5,13.5,0,0,1-1.55,2.08,11.89,11.89,0,0,1,1.25-2.28c.83-1.37,2-3.23,3.45-5.23s2.75-3.77,3.75-5A13,13,0,0,1,555.34,284.94Z" style="fill:#fafafa"></path><path d="M560.2,287.14a11,11,0,0,1-1.14,2.2c-.77,1.32-1.89,3.11-3.18,5.05s-2.52,3.66-3.44,4.88a11.24,11.24,0,0,1-1.59,1.91,12.55,12.55,0,0,1,1.29-2.12l3.31-5,3.3-5A12.4,12.4,0,0,1,560.2,287.14Z" style="fill:#fafafa"></path><path d="M561.5,300.51a27.13,27.13,0,0,1,2.17-11c.14,0-.55,2.46-1.15,5.49S561.65,300.52,561.5,300.51Z" style="fill:#fafafa"></path><path d="M568.13,304.43a47.23,47.23,0,0,1,.18-6.92,46.39,46.39,0,0,1,.7-6.9,47.36,47.36,0,0,1-.18,6.93A44.81,44.81,0,0,1,568.13,304.43Z" style="fill:#fafafa"></path><path d="M576.27,302.08a20.74,20.74,0,0,1-.83-5.55,20.49,20.49,0,0,1,.19-5.6c.15,0,.15,2.5.33,5.57A54,54,0,0,1,576.27,302.08Z" style="fill:#fafafa"></path><path d="M559.05,272.63l30.43-3.6a3.82,3.82,0,0,0,3.38-3.94l-1.18-34.55a1.66,1.66,0,0,0-3.13-.71c-3.71,7-8,21.49-8,21.49l-22.17,3.54Z" style="fill:#455a64"></path><path d="M559,272.65v0l-.72-17.79h0l22.15-3.53c.17-.54,4.43-14.65,8-21.48a1.69,1.69,0,0,1,3.18.72l1.18,34.55a3.89,3.89,0,0,1-.93,2.65,3.81,3.81,0,0,1-2.48,1.32Zm-.67-17.77.71,17.72L589.48,269a3.8,3.8,0,0,0,2.44-1.3,3.86,3.86,0,0,0,.92-2.62l-1.18-34.55A1.59,1.59,0,0,0,590.4,229a1.61,1.61,0,0,0-1.83.84c-3.67,6.92-8,21.33-8,21.48v0h0Z" style="fill:#263238"></path><path d="M592.52,260.61c0,.08-.72.1-1.8.43a8,8,0,0,0-3.63,2.35,7.91,7.91,0,0,0-1.76,3.95c-.17,1.13-.07,1.84-.16,1.85a3.66,3.66,0,0,1-.21-1.89,7.41,7.41,0,0,1,1.74-4.24,7.28,7.28,0,0,1,3.92-2.37A3.56,3.56,0,0,1,592.52,260.61Z" style="fill:#263238"></path><path d="M591.66,238a4,4,0,0,1-3.19.26,4,4,0,0,1-2.66-1.77,18,18,0,0,0,2.79,1.26A16.69,16.69,0,0,0,591.66,238Z" style="fill:#263238"></path><path d="M559.05,272.63l30.43-3.6a3.82,3.82,0,0,0,3.38-3.94l-1.18-34.55a1.66,1.66,0,0,0-3.13-.71c-3.71,7-8,21.49-8,21.49l-22.17,3.54Z" style="fill:#455a64"></path><path d="M559,272.65v0l-.72-17.79h0l22.15-3.53c.17-.54,4.43-14.65,8-21.48a1.69,1.69,0,0,1,3.18.72l1.18,34.55a3.89,3.89,0,0,1-.93,2.65,3.81,3.81,0,0,1-2.48,1.32Zm-.67-17.77.71,17.72L589.48,269a3.8,3.8,0,0,0,2.44-1.3,3.86,3.86,0,0,0,.92-2.62l-1.18-34.55A1.59,1.59,0,0,0,590.4,229a1.61,1.61,0,0,0-1.83.84c-3.67,6.92-8,21.33-8,21.48v0h0Z" style="fill:#263238"></path><path d="M592.52,260.61c0,.08-.72.1-1.8.43a8,8,0,0,0-3.63,2.35,7.91,7.91,0,0,0-1.76,3.95c-.17,1.13-.07,1.84-.16,1.85a3.66,3.66,0,0,1-.21-1.89,7.41,7.41,0,0,1,1.74-4.24,7.28,7.28,0,0,1,3.92-2.37A3.56,3.56,0,0,1,592.52,260.61Z" style="fill:#263238"></path><path d="M591.66,238a4,4,0,0,1-3.19.26,4,4,0,0,1-2.66-1.77,18,18,0,0,0,2.79,1.26A16.69,16.69,0,0,0,591.66,238Z" style="fill:#263238"></path><path d="M576.84,270.23a12,12,0,0,1-.8-2.47c-.43-1.55-1-3.7-1.51-6.09s-.95-4.57-1.22-6.16a12.34,12.34,0,0,1-.32-2.58,13.66,13.66,0,0,1,.68,2.51c.39,1.74.86,3.82,1.37,6.11s1,4.37,1.35,6.12A13.13,13.13,0,0,1,576.84,270.23Z" style="fill:#fafafa"></path><path d="M583,269.59a77.73,77.73,0,0,1-2.18-8.75,77.87,77.87,0,0,1-1.66-8.87,79,79,0,0,1,2.17,8.76A79,79,0,0,1,583,269.59Z" style="fill:#fafafa"></path><path d="M592.33,260.6c-.12.11-2.39-2.24-5.44-4.84s-5.71-4.49-5.62-4.62a8.46,8.46,0,0,1,1.85,1.08,45.94,45.94,0,0,1,4.11,3.15,45,45,0,0,1,3.74,3.57A8,8,0,0,1,592.33,260.6Z" style="fill:#fafafa"></path><path d="M591.37,250.2a23.22,23.22,0,0,1-4.46-2,22.69,22.69,0,0,1-4.21-2.48,23.3,23.3,0,0,1,4.45,2A23,23,0,0,1,591.37,250.2Z" style="fill:#fafafa"></path><path d="M592.44,242.85a32.19,32.19,0,0,1-7.9-2,32.5,32.5,0,0,1,7.9,2Z" style="fill:#fafafa"></path><polygon points="404.54 306.36 483.37 256.32 570.19 250.2 572.3 273.45 490.47 284.94 416.91 346.68 404.54 306.36" style="fill:#263238"></polygon><path d="M482.09,239.94c-5.9-2.68-16.52-1.53-21,3.08C445.26,259.1,409,317.56,409,317.56v31.35s23.38,1.15,31.38-2.24c4.7-2,31.68-51.56,39.25-68.89l60.21,22.49,14.8-20.53S490,243.53,482.09,239.94Z" style="fill:#263238"></path><path d="M484,240.91s-.08,0-.24-.08l-.66-.27a25.06,25.06,0,0,0-2.61-.91,24,24,0,0,0-10-.74,17.89,17.89,0,0,0-6.54,2.27,30.58,30.58,0,0,0-6,5.25,142.41,142.41,0,0,0-11.44,14.5c-7.43,10.82-14,20.78-18.76,27.92L422,297.3c-.68,1-1.22,1.75-1.6,2.26-.19.26-.33.45-.44.57a.92.92,0,0,1-.13.14c-.08,0,0-.06,0,0s0,0,0,0a1.14,1.14,0,0,0,.11-.14l.39-.6,1.52-2.32,5.57-8.54c4.73-7.2,11.19-17.18,18.64-28a136.5,136.5,0,0,1,11.52-14.53,30.74,30.74,0,0,1,6.15-5.3,18.08,18.08,0,0,1,6.71-2.26,23.48,23.48,0,0,1,10.14.92A17.51,17.51,0,0,1,484,240.91Z" style="fill:#455a64"></path><path d="M419.1,323.27a7.58,7.58,0,0,1-.86-2.16,28.77,28.77,0,0,1-1.1-11.07,7.49,7.49,0,0,1,.42-2.28c.17,0-.31,3.52.13,7.82S419.26,323.22,419.1,323.27Z" style="fill:#455a64"></path><path d="M539.8,300.27l-.28-.08-.83-.28-3.15-1.13L524,294.56l-38-14.12L479.5,278l.32-.12-16.65,31.82-5,9.43-1.37,2.53-.37.66a.87.87,0,0,1-.14.21l.1-.24.32-.67,1.29-2.58c1.16-2.26,2.81-5.49,4.85-9.5l16.5-31.9.1-.2.22.08,6.47,2.41,38,14.27,11.49,4.37,3.12,1.22.8.33C539.71,300.21,539.81,300.26,539.8,300.27Z" style="fill:#455a64"></path><path d="M496.65,247.62c.07-.12,13.1,7,29.1,15.83s28.92,16.16,28.85,16.29-13.1-7-29.1-15.83S496.58,247.75,496.65,247.62Z" style="fill:#455a64"></path><path d="M479.59,277.78a36.71,36.71,0,0,1-.57-6.23,38.31,38.31,0,0,1,0-6.25,36.71,36.71,0,0,1,.57,6.23A38.34,38.34,0,0,1,479.59,277.78Z" style="fill:#455a64"></path><path d="M418.49,303.45A69.82,69.82,0,0,1,410,312a35.09,35.09,0,0,1,4.08-4.46A35.91,35.91,0,0,1,418.49,303.45Z" style="fill:#455a64"></path><path d="M410.49,312.77c-.57-1.83-1.24-3.78-1.86-5.52a6.69,6.69,0,0,0-7.28-4.37l-14.88,2.19s-23.68-5.36-33.29-6.25c-6.74-.63-18.09-2.28-23-.15,0,0-4.48-1.42-5.74-1.79l-2.17,1.55s4.06,5.57,3.72,5.8c-5,3.32-24.81,7.83-25.47,8.52s.82,3.74,4.11,7.79L306.4,347l51,2.22s57.17.84,60.53-.05C425.05,347.24,412,317.61,410.49,312.77Z" style="fill:#407BFF"></path><path d="M321.57,326.9c0,.09-1.08.1-2.8.37a22.2,22.2,0,0,0-11.92,6c-1.25,1.21-1.9,2.08-2,2a2.54,2.54,0,0,1,.39-.66,15.13,15.13,0,0,1,1.33-1.62,20.12,20.12,0,0,1,5.53-4.1,19.83,19.83,0,0,1,6.6-2,14.1,14.1,0,0,1,2.09-.1C321.3,326.83,321.57,326.86,321.57,326.9Z" style="fill:#263238"></path><path d="M325.64,304.45c.06,0,.17.74.68,1.95a11,11,0,0,0,3.25,4.28l.29.22-.35.15c-2.44,1-5.4,2.18-8.62,3.35-4.37,1.58-8.39,2.85-11.32,3.71-1.46.42-2.65.74-3.48.95a5.7,5.7,0,0,1-1.3.27,6.79,6.79,0,0,1,1.25-.46l3.43-1.12c2.89-.94,6.88-2.26,11.25-3.84,3.21-1.16,6.17-2.3,8.63-3.27l-.06.38a10.66,10.66,0,0,1-3.2-4.53,9.74,9.74,0,0,1-.41-1.49A1.76,1.76,0,0,1,325.64,304.45Z" style="fill:#263238"></path><path d="M329.6,299.28a49.34,49.34,0,0,0,3.68,4.65l.54.57-.77-.13-.51-.08A24.22,24.22,0,0,0,328,304c-1.16,0-1.87.18-1.89.11a4.18,4.18,0,0,1,1.86-.48,18.18,18.18,0,0,1,4.64.13l.53.09-.23.44C330.55,301.82,329.46,299.34,329.6,299.28Z" style="fill:#263238"></path><path d="M380.12,315.07a2.09,2.09,0,0,1-.55-.08l-1.58-.33-5.76-1.26c-4.87-1.06-11.61-2.48-19.09-3.89S338.87,307,334,306.2l-5.83-.91-1.59-.27a2.43,2.43,0,0,1-.54-.12,2.15,2.15,0,0,1,.56,0l1.59.17c1.39.15,3.39.41,5.86.75,4.94.68,11.76,1.75,19.24,3.16s14.21,2.88,19.07,4c2.42.58,4.38,1.07,5.73,1.43l1.55.42A2.59,2.59,0,0,1,380.12,315.07Z" style="fill:#263238"></path><path d="M407,311c0,.09-1.59-.16-4.14-.26a40.54,40.54,0,0,0-19.32,4.09c-2.29,1.12-3.63,2-3.68,1.91a4.64,4.64,0,0,1,.9-.68,27.75,27.75,0,0,1,2.62-1.56,36.4,36.4,0,0,1,19.5-4.12,25.79,25.79,0,0,1,3,.36A5.34,5.34,0,0,1,407,311Z" style="fill:#263238"></path><path d="M329.48,298.94c-.08.13-1.27-.43-2.84-.79s-2.88-.42-2.88-.57a5.22,5.22,0,0,1,3,.06A5.17,5.17,0,0,1,329.48,298.94Z" style="fill:#263238"></path><path d="M338.32,287.46a24.34,24.34,0,0,0,11.41,10.85,7.37,7.37,0,0,1-2.24-.81,19,19,0,0,1-8.25-7.84A6.83,6.83,0,0,1,338.32,287.46Z" style="fill:#263238"></path><path d="M270.63,335.27a1.49,1.49,0,0,1,.24-.31l.74-.85,2.86-3.16,0,0,0,0c4.63-1.53,12-3.91,20.31-6.55,3.57-1.15,7-2.16,10.06-3.22a30.18,30.18,0,0,1,8.51-1.56,25.92,25.92,0,0,1,5.82.42c.68.14,1.2.26,1.55.37a2.21,2.21,0,0,1,.52.18s-.75-.14-2.1-.35a28.86,28.86,0,0,0-5.77-.26,31.93,31.93,0,0,0-8.38,1.65c-3.05,1.08-6.48,2.11-10,3.26-8.31,2.64-15.72,5-20.39,6.37l.07,0-3,3.05-.8.8C270.74,335.2,270.64,335.28,270.63,335.27Z" style="fill:#263238"></path><path d="M384.48,310.64a5.33,5.33,0,0,1-.58,1c-.4.66-1,1.57-1.83,2.67a53.3,53.3,0,0,1-15.81,14.19c-1.18.69-2.16,1.21-2.85,1.53a5,5,0,0,1-1.1.46c0-.08,1.46-.86,3.76-2.31a61.86,61.86,0,0,0,15.71-14.09C383.47,312,384.4,310.6,384.48,310.64Z" style="fill:#263238"></path><g style="opacity:0.30000000000000004"><path d="M305.34,319.08A102.17,102.17,0,0,0,334.18,312a40,40,0,0,0-8-6.24,8.45,8.45,0,0,0,3.35,5.24Z"></path></g><g style="opacity:0.30000000000000004"><path d="M326,304.24q4.53.69,9.1.93l-4.87-4.78a34.37,34.37,0,0,0,3.11,4.11,7.78,7.78,0,0,0-3.36-.71c-1.41,0-3-.2-4,.45"></path></g><g style="opacity:0.30000000000000004"><path d="M317.42,327.31c-3.24.64-4.65,1.65-7.58,3.2a12,12,0,0,0-6,7.78c-.4,1.8.2,4.07,2,4.6a4.51,4.51,0,0,0,3.47-.82,25.15,25.15,0,0,0,11.45-15,11.63,11.63,0,0,0-3.5.39"></path></g><g style="opacity:0.30000000000000004"><path d="M365.6,328.73c-1,.66-2.42,1.19-3,.37a2.38,2.38,0,0,1,.36-2.76,7.66,7.66,0,0,1,2.46-1.65,47,47,0,0,0,15.11-12.25,2.74,2.74,0,0,1,.9-.83.89.89,0,0,1,1.11.23c.25.4,0,.91-.22,1.31a41.49,41.49,0,0,1-17,15.73"></path></g><path d="M418.86,338.89a3.79,3.79,0,0,1-.89,1.57,8.8,8.8,0,0,1-3.54,2.57,8.93,8.93,0,0,1-4.34.56,3.8,3.8,0,0,1-1.73-.53,15.37,15.37,0,0,1,1.77.16,9.72,9.72,0,0,0,4.11-.68,10,10,0,0,0,3.45-2.32C418.43,339.44,418.78,338.85,418.86,338.89Z" style="fill:#263238"></path><path d="M420,340.89c.14,0,.33,1.06-.31,2.19s-1.64,1.55-1.69,1.42.7-.68,1.24-1.67S419.89,340.9,420,340.89Z" style="fill:#263238"></path></g><g id="freepik--Shoes--inject-77"><path d="M575.62,457.73l-32.56.4-.7-40.51c3.87.17,12,21,12,21l20.86-1.11Z" style="fill:#407BFF"></path><g style="opacity:0.6000000000000001"><path d="M556.33,451.11a1.64,1.64,0,0,1-1.86,1.17,1.59,1.59,0,0,1-1.19-1.84,1.75,1.75,0,0,1,2-1.23,1.65,1.65,0,0,1,1,2.05" style="fill:#fff"></path></g><g style="opacity:0.6000000000000001"><path d="M543.19,458.13l3.28-.19-2.15-38.76s-.83-1.79-2.09-1.55Z" style="fill:#fff"></path></g><path d="M554.56,438c-.2,0-.27,1-.89,2s-1.44,1.51-1.36,1.69,1.22-.13,2-1.33S554.74,437.91,554.56,438Z" style="fill:#263238"></path><path d="M552.73,433.73c-.19,0-.52.82-1.34,1.51s-1.71.9-1.7,1.09,1.14.31,2.15-.57S552.92,433.73,552.73,433.73Z" style="fill:#263238"></path><path d="M547.6,431.41c0,.18.95.44,2-.09s1.49-1.46,1.32-1.54-.73.5-1.62.92S547.62,431.21,547.6,431.41Z" style="fill:#263238"></path><path d="M559.34,438.23c-.18.08.11,1,0,2.1s-.39,2-.22,2.1.86-.75.91-2.07S559.49,438.13,559.34,438.23Z" style="fill:#263238"></path><path d="M564.16,439.11a3.81,3.81,0,0,0,.05,2,8.89,8.89,0,0,0,.69,2.11,8.18,8.18,0,0,0,.63,1.15,2.57,2.57,0,0,0,.49.61.88.88,0,0,0,1.06.07,1.09,1.09,0,0,0,.43-.87,2.42,2.42,0,0,0-.12-.76,6.94,6.94,0,0,0-.45-1.26,7.19,7.19,0,0,0-1.26-1.85c-.89-.92-1.63-1.23-1.67-1.16s.57.54,1.3,1.48a7.68,7.68,0,0,1,1.05,1.79,7.88,7.88,0,0,1,.38,1.16c.12.43.13.79-.06.91s-.1,0-.23,0a2.17,2.17,0,0,1-.35-.44,9.83,9.83,0,0,1-.63-1.06,10.5,10.5,0,0,1-.79-2A12.65,12.65,0,0,0,564.16,439.11Z" style="fill:#263238"></path><path d="M563.88,439.37a3.25,3.25,0,0,0,2,.5,6.37,6.37,0,0,0,2.22-.31,6.5,6.5,0,0,0,1.22-.54,1.66,1.66,0,0,0,1-1.31,1,1,0,0,0-.58-.84,2.94,2.94,0,0,0-.74-.2,4.8,4.8,0,0,0-1.37,0,4.58,4.58,0,0,0-2.08.9c-1,.81-1.26,1.64-1.19,1.65s.47-.63,1.47-1.25a4.41,4.41,0,0,1,3.06-.66c.44.06.79.21.74.37s-.31.55-.65.73a7,7,0,0,1-3.11.95C564.66,439.46,563.91,439.26,563.88,439.37Z" style="fill:#263238"></path><path d="M622.87,425.92l-1,31.82-40.51-.33c.34-3.86,21.5-11.08,21.5-11.08l-.21-20.88Z" style="fill:#407BFF"></path><g style="opacity:0.6000000000000001"><path d="M615.42,444.9a1.65,1.65,0,0,1,1.09,1.92,1.59,1.59,0,0,1-1.89,1.1,1.75,1.75,0,0,1-1.15-2,1.64,1.64,0,0,1,2.1-.92" style="fill:#fff"></path></g><g style="opacity:0.6000000000000001"><path d="M621.87,457.61l0-2.55-38.82.46s-1.82.75-1.64,2Z" style="fill:#fff"></path></g><path d="M602.2,446.11c0,.19,1,.31,1.94,1s1.46,1.51,1.64,1.43-.08-1.22-1.25-2S602.16,445.92,602.2,446.11Z" style="fill:#263238"></path><path d="M597.9,447.75c0,.19.8.55,1.45,1.41s.82,1.74,1,1.74.35-1.12-.48-2.17S597.91,447.56,597.9,447.75Z" style="fill:#263238"></path><path d="M595.36,452.77c.18.05.48-.93,0-2s-1.4-1.55-1.48-1.39.47.76.85,1.67S595.16,452.75,595.36,452.77Z" style="fill:#263238"></path><path d="M602.68,441.34c.08.18,1-.06,2.11,0s2,.48,2.08.31-.71-.89-2-1S602.59,441.18,602.68,441.34Z" style="fill:#263238"></path><path d="M603.77,436.56a3.73,3.73,0,0,0,2,0,9.15,9.15,0,0,0,2.14-.59,10.81,10.81,0,0,0,1.18-.59,2.6,2.6,0,0,0,.62-.46.85.85,0,0,0,.12-1,1.09,1.09,0,0,0-.85-.48,2.91,2.91,0,0,0-.77.09,7.86,7.86,0,0,0-1.27.4,7.11,7.11,0,0,0-1.9,1.18c-1,.84-1.3,1.57-1.24,1.61s.56-.53,1.54-1.23a8,8,0,0,1,1.83-1,7,7,0,0,1,1.18-.33c.43-.1.79-.09.9.1s0,.1,0,.23a2,2,0,0,1-.46.33,9.71,9.71,0,0,1-1.09.59,11.61,11.61,0,0,1-2,.7A13.25,13.25,0,0,0,603.77,436.56Z" style="fill:#263238"></path><path d="M604,436.85a3.18,3.18,0,0,0,.58-1.94,6.4,6.4,0,0,0-.21-2.23,7.51,7.51,0,0,0-.49-1.25,1.67,1.67,0,0,0-1.27-1.05.93.93,0,0,0-.86.54,3,3,0,0,0-.23.74,4.46,4.46,0,0,0,0,1.36,4.6,4.6,0,0,0,.81,2.12c.76,1.07,1.58,1.33,1.6,1.26s-.61-.49-1.19-1.52a4.77,4.77,0,0,1-.59-1.92,4.24,4.24,0,0,1,.07-1.17c.07-.43.24-.77.4-.73s.54.34.69.69a6.65,6.65,0,0,1,.48,1.11,7.35,7.35,0,0,1,.34,2C604.14,436.08,603.91,436.82,604,436.85Z" style="fill:#263238"></path></g><g id="freepik--Shelf--inject-77"><rect x="36.7" y="153.16" width="34.17" height="304.87" style="fill:#263238"></rect><rect x="70.67" y="153.16" width="108.03" height="304.87" style="fill:#455a64"></rect><rect x="79.4" y="159.15" width="94.18" height="74.03" style="fill:#263238"></rect><rect x="79.4" y="241.08" width="94.18" height="74.03" style="fill:#263238"></rect><path d="M173.58,363.09s0-.26,0-.74,0-1.23,0-2.15c0-1.9,0-4.66-.07-8.19,0-7.1-.08-17.31-.14-29.93l.26.27-94.17.1c-.33.32.43-.45.35-.36h0v21.11c0,6.86,0,13.51,0,19.88l-.35-.34,67.51.16,19.58.1,5.25,0,1.37,0,.47,0a2.17,2.17,0,0,1-.43,0l-1.33,0-5.18,0-19.5.1-67.74.16h-.35v-.35c0-6.37,0-13,0-19.88V322.1h0c-.09.07.69-.7.37-.37l94.17.1h.27v.26c-.05,12.68-.1,22.95-.14,30.09,0,3.51,0,6.24-.06,8.13q0,1.35,0,2.1C173.6,362.87,173.58,363.09,173.58,363.09Z" style="fill:#263238"></path><path d="M173.58,447.33s0-.51,0-1.46,0-2.38,0-4.21c0-3.69,0-9.06-.07-15.9,0-13.69-.1-33.25-.16-56.82l.3.31-94.17.06h0l.36-.37c0,28.39,0,55.17,0,78.39L79.4,447l68,.17,19.27.08,5.11,0,1.32,0,.46,0-.42,0-1.29,0-5.05,0-19.19.09-68.23.16h-.32v-.32c0-23.22,0-50,0-78.39v-.36h.38l94.17.06h.31v.3c-.07,23.65-.12,43.27-.16,57,0,6.81-.06,12.16-.08,15.84,0,1.79,0,3.18,0,4.14S173.58,447.33,173.58,447.33Z" style="fill:#263238"></path><path d="M129.54,340.56a2.43,2.43,0,1,1-2.43-2.43A2.42,2.42,0,0,1,129.54,340.56Z" style="fill:#263238"></path><path d="M129.54,388.82a2.43,2.43,0,1,1-2.43-2.42A2.43,2.43,0,0,1,129.54,388.82Z" style="fill:#263238"></path><path d="M97.58,291.67s-6.09,4.64-.26,10.77a.55.55,0,0,0,.39.16l53.21-.31s4.55-5.09.78-11Z" style="fill:#fafafa"></path><path d="M100,302.71h-.1a1.86,1.86,0,0,1-.28-.07,2.21,2.21,0,0,1-1.47-2.11,2.28,2.28,0,0,1,1-1.79l0,.16a1.88,1.88,0,0,1-1.32-1.68,1.85,1.85,0,0,1,1.56-1.87l0,.16a2.15,2.15,0,0,1-1.06-1.59,2,2,0,0,1,.41-1.45,1.9,1.9,0,0,1,1-.71h.09a2.85,2.85,0,0,1-.31.15,2.26,2.26,0,0,0-.71.63,1.93,1.93,0,0,0-.34,1.37,2,2,0,0,0,1,1.46l.24.13-.27,0a1.64,1.64,0,0,0-.22,3.2l.19.06-.16.11a2.15,2.15,0,0,0-.93,1.65,2.09,2.09,0,0,0,.5,1.44,2.26,2.26,0,0,0,.83.6C99.85,302.67,100,302.69,100,302.71Z" style="fill:#e0e0e0"></path><path d="M100,300.88a.14.14,0,0,1-.09-.05.34.34,0,0,1-.08-.29h0a.69.69,0,0,1,.34-.36,1.77,1.77,0,0,1,.63-.15,5,5,0,0,1,.76,0,3,3,0,0,1,.42.06,1,1,0,0,1,.43.17.45.45,0,0,1,.19.33.37.37,0,0,1-.16.34,1.29,1.29,0,0,1-.59.18,4.72,4.72,0,0,1-1,0,1.83,1.83,0,0,1-.86-.26s.33.1.88.13a4.69,4.69,0,0,0,.95-.06,1.13,1.13,0,0,0,.49-.15.22.22,0,0,0,0-.37.86.86,0,0,0-.36-.13l-.4-.07a4.65,4.65,0,0,0-.73,0c-.45,0-.8.15-.89.38h0a.34.34,0,0,0,0,.24C100,300.85,100,300.87,100,300.88Z" style="fill:#e0e0e0"></path><path d="M99.85,297.28s0,0-.1,0a.39.39,0,0,1-.08-.29h0a.67.67,0,0,1,.34-.37,1.5,1.5,0,0,1,.63-.14,5,5,0,0,1,.76,0l.41.06a1,1,0,0,1,.44.17.47.47,0,0,1,.19.33.4.4,0,0,1-.17.34,1.06,1.06,0,0,1-.58.18,4.18,4.18,0,0,1-1,0,1.76,1.76,0,0,1-.86-.27,7.11,7.11,0,0,0,.87.13,5.4,5.4,0,0,0,1-.05,1.14,1.14,0,0,0,.5-.16c.13-.09.11-.26,0-.37a.9.9,0,0,0-.36-.13l-.39-.07a6.41,6.41,0,0,0-.73,0,1,1,0,0,0-.9.38h0a.37.37,0,0,0,0,.25C99.82,297.26,99.85,297.27,99.85,297.28Z" style="fill:#e0e0e0"></path><path d="M99.92,293.8s0,0-.09,0a.39.39,0,0,1-.08-.29h0a.7.7,0,0,1,.34-.37,1.77,1.77,0,0,1,.64-.14,5,5,0,0,1,.76,0l.41.06a1,1,0,0,1,.43.17.47.47,0,0,1,.19.33.37.37,0,0,1-.16.34,1.09,1.09,0,0,1-.59.18,4.09,4.09,0,0,1-1,0,1.66,1.66,0,0,1-.87-.27,7.1,7.1,0,0,0,.88.13,4.62,4.62,0,0,0,1-.05,1,1,0,0,0,.49-.15.23.23,0,0,0,0-.38,1,1,0,0,0-.36-.13l-.4-.07a6.29,6.29,0,0,0-.73,0,.94.94,0,0,0-.89.38h0a.46.46,0,0,0,0,.25S99.93,293.79,99.92,293.8Z" style="fill:#e0e0e0"></path><path d="M147.78,291.47s0,0,.1,0a1.86,1.86,0,0,1,.28.07,2.26,2.26,0,0,1,.89.59,2.12,2.12,0,0,1,.57,1.52,2.26,2.26,0,0,1-1,1.8l0-.17a1.89,1.89,0,0,1,1.32,1.68,1.87,1.87,0,0,1-1.56,1.88l0-.17a2.11,2.11,0,0,1,1.05,1.6,2,2,0,0,1-1.18,2.06,1.07,1.07,0,0,1-.24.09l-.09,0s.11-.05.31-.16a2.14,2.14,0,0,0,.71-.63,1.91,1.91,0,0,0,.34-1.36,2,2,0,0,0-1-1.46l-.24-.13.27,0a1.69,1.69,0,0,0,1.4-1.69,1.71,1.71,0,0,0-1.18-1.51l-.2,0,.17-.11a2.18,2.18,0,0,0,.93-1.66,2,2,0,0,0-.51-1.43,2.31,2.31,0,0,0-.83-.61Z" style="fill:#e0e0e0"></path><path d="M147.77,293.3s0,0,.09,0a.39.39,0,0,1,.08.29h0a.75.75,0,0,1-.34.37,1.77,1.77,0,0,1-.64.14,5,5,0,0,1-.76,0l-.41-.06a1,1,0,0,1-.43-.17.47.47,0,0,1-.19-.33.36.36,0,0,1,.16-.34,1.09,1.09,0,0,1,.59-.18,4.09,4.09,0,0,1,1,0,1.66,1.66,0,0,1,.87.27,7.1,7.1,0,0,0-.88-.13,4.62,4.62,0,0,0-.95.05,1,1,0,0,0-.49.15.23.23,0,0,0,0,.38,1,1,0,0,0,.36.13,2.76,2.76,0,0,0,.4.06,4.64,4.64,0,0,0,.73.05.94.94,0,0,0,.89-.38h0a.37.37,0,0,0,0-.25C147.79,293.32,147.76,293.31,147.77,293.3Z" style="fill:#e0e0e0"></path><path d="M147.91,296.89a.18.18,0,0,1,.1.05.34.34,0,0,1,.07.29h0a.65.65,0,0,1-.34.36,1.54,1.54,0,0,1-.63.15,5,5,0,0,1-.76,0,2.9,2.9,0,0,1-.41-.06,1.12,1.12,0,0,1-.44-.16.49.49,0,0,1-.19-.34.41.41,0,0,1,.16-.34,1.29,1.29,0,0,1,.59-.18,4.72,4.72,0,0,1,1,0,1.83,1.83,0,0,1,.86.26s-.33-.1-.87-.13a4.65,4.65,0,0,0-.95.06,1.13,1.13,0,0,0-.5.15.22.22,0,0,0,0,.37.77.77,0,0,0,.35.13l.4.07a4.72,4.72,0,0,0,.73,0c.45,0,.81-.15.9-.38h0a.3.3,0,0,0,0-.24Z" style="fill:#e0e0e0"></path><path d="M147.84,300.37a.14.14,0,0,1,.09.05.37.37,0,0,1,.08.29h0a.71.71,0,0,1-.35.36,1.67,1.67,0,0,1-.63.15,5,5,0,0,1-.76,0l-.41-.06a1.05,1.05,0,0,1-.44-.17.48.48,0,0,1-.19-.33.4.4,0,0,1,.17-.34,1.26,1.26,0,0,1,.59-.18,4.62,4.62,0,0,1,1,0,1.84,1.84,0,0,1,.87.26s-.33-.1-.88-.13a4.69,4.69,0,0,0-1,.06,1.13,1.13,0,0,0-.5.15.22.22,0,0,0,0,.37.77.77,0,0,0,.36.13l.39.07a6.46,6.46,0,0,0,.74,0,.92.92,0,0,0,.89-.38h0a.33.33,0,0,0,0-.24C147.86,300.4,147.83,300.38,147.84,300.37Z" style="fill:#e0e0e0"></path><path d="M139.23,296.51c0,.06-6.63.1-14.8.1s-14.8,0-14.8-.1,6.62-.09,14.8-.09S139.23,296.46,139.23,296.51Z" style="fill:#e0e0e0"></path><path d="M131,298.44c0,.05-3.11.09-7,.09s-6.95,0-6.95-.09,3.11-.1,6.95-.1S131,298.38,131,298.44Z" style="fill:#e0e0e0"></path><polygon points="88.69 313.79 88.56 302.57 94.68 302.57 94.89 313.79 88.69 313.79" style="fill:#f5f5f5"></polygon><path d="M94.32,304.56a19.51,19.51,0,0,1-2.84.1,19.4,19.4,0,0,1-2.84-.1,22.4,22.4,0,0,1,2.84-.09A22.53,22.53,0,0,1,94.32,304.56Z" style="fill:#e0e0e0"></path><ellipse cx="91.48" cy="306.3" rx="2.84" ry="0.1" style="fill:#e0e0e0"></ellipse><path d="M94.32,308a21.36,21.36,0,0,1-2.84.1,21.23,21.23,0,0,1-2.84-.1,21.23,21.23,0,0,1,2.84-.1A21.36,21.36,0,0,1,94.32,308Z" style="fill:#e0e0e0"></path><path d="M94.32,309.76a19.51,19.51,0,0,1-2.84.1,19.4,19.4,0,0,1-2.84-.1,22.4,22.4,0,0,1,2.84-.09A22.53,22.53,0,0,1,94.32,309.76Z" style="fill:#e0e0e0"></path><path d="M94.32,311.5a22.53,22.53,0,0,1-2.84.09,22.4,22.4,0,0,1-2.84-.09,19.4,19.4,0,0,1,2.84-.1A19.51,19.51,0,0,1,94.32,311.5Z" style="fill:#e0e0e0"></path><path d="M88,302.19h67.74a31.74,31.74,0,0,1,0,12.14H88.32v-.83h4.13a1.94,1.94,0,0,0,1.94-1.94v-6.72a1.94,1.94,0,0,0-1.94-1.94H88Z" style="fill:#455a64"></path><path d="M104.58,306.14l0,.08c0,.17.31,1.56.8,4.2a.13.13,0,0,1,0,.06.27.27,0,0,1,0,.12.24.24,0,0,1-.21.13h0a.21.21,0,0,1-.18-.16l-.27-1.4H103.3l-.67,1.4,0,.05a.29.29,0,0,1-.21.12.37.37,0,0,1-.14,0,.25.25,0,0,1-.11-.21.19.19,0,0,1,0-.07c0-.1.11-.25.21-.46,1-2.13,1.55-3.38,1.74-3.76a.26.26,0,0,1,.24-.17A.25.25,0,0,1,104.58,306.14Zm-.3.94-.76,1.58h1.07Z" style="fill:#263238"></path><path d="M105.86,309.88a.37.37,0,0,1,0-.11.18.18,0,0,1,0-.1.17.17,0,0,1,.18-.12.31.31,0,0,1,.22.14l.06.08a1.18,1.18,0,0,0,.82.52.9.9,0,0,0,.66-.28.89.89,0,0,0,.27-.65.91.91,0,0,0-.18-.55,1.64,1.64,0,0,0-.47-.39l-.43-.25a1.61,1.61,0,0,1-.27-.23,1,1,0,0,1-.27-.72.45.45,0,0,1,0-.11,1.12,1.12,0,0,1,.38-.78,1.17,1.17,0,0,1,.81-.32,1.32,1.32,0,0,1,.39.06,1.15,1.15,0,0,1,.62.48.45.45,0,0,1,0,.13.23.23,0,0,1,0,.11.21.21,0,0,1-.19.11.18.18,0,0,1-.15-.06.89.89,0,0,0-.67-.37.68.68,0,0,0-.5.2.75.75,0,0,0-.25.56.61.61,0,0,0,.13.36,1.63,1.63,0,0,0,.44.34,4.49,4.49,0,0,1,.54.36,1.34,1.34,0,0,1,.57,1.07,1.24,1.24,0,0,1,0,.27,1.3,1.3,0,0,1-.5.8,1.42,1.42,0,0,1-.91.33,1.29,1.29,0,0,1-.63-.17A1.68,1.68,0,0,1,105.86,309.88Z" style="fill:#263238"></path><path d="M112.87,306.26a.17.17,0,0,1,0,.12.25.25,0,0,1-.22.11h-1.39q-.5,3.84-.51,4v0a.24.24,0,0,1-.25.22.28.28,0,0,1-.13,0,.29.29,0,0,1-.11-.26s.12-.95.36-2.77c.09-.62.14-1,.16-1.17h-1.3l-.13,0a.2.2,0,0,1-.16-.2.28.28,0,0,1,0-.13.26.26,0,0,1,.23-.12h3.21a.15.15,0,0,1,.09,0A.21.21,0,0,1,112.87,306.26Z" style="fill:#263238"></path><path d="M113.33,310.48c0,.16-.11.24-.25.25a.25.25,0,0,1-.12,0,.29.29,0,0,1-.12-.26c.09-.76.27-2.16.55-4.18a.17.17,0,0,1,.06-.12.37.37,0,0,1,.25-.09,3.64,3.64,0,0,1,.6-.05,2.77,2.77,0,0,1,.42,0,.91.91,0,0,1,.86.94,1.81,1.81,0,0,1-.1.58,2.15,2.15,0,0,1-1.51,1.2l1.67,1.53a.31.31,0,0,1,.11.22.19.19,0,0,1,0,.12.21.21,0,0,1-.19.12.4.4,0,0,1-.2-.07s-.65-.58-1.8-1.64C113.42,309.83,113.36,310.31,113.33,310.48Zm.53-4-.24,1.82a2.22,2.22,0,0,0,.82-.28,1.18,1.18,0,0,0,.66-1c0-.35-.26-.53-.79-.54Z" style="fill:#263238"></path><path d="M116.08,308.8a3.5,3.5,0,0,1,.14-1,3.18,3.18,0,0,1,.68-1.29,1.37,1.37,0,0,1,1-.53,1,1,0,0,1,.83.45,2.24,2.24,0,0,1,.42,1.28l.29-.14a1,1,0,0,1,.38-.12l.11,0a.23.23,0,0,1,.11.2.33.33,0,0,1-.11.22,1.59,1.59,0,0,1-.79.32,3.5,3.5,0,0,1-.12.66,3.07,3.07,0,0,1-.68,1.32,1.36,1.36,0,0,1-1,.53h-.13a1.09,1.09,0,0,1-.77-.56A2.5,2.5,0,0,1,116.08,308.8Zm.51-.09a2.54,2.54,0,0,0,.16,1c.14.37.35.55.63.55a.41.41,0,0,0,.21-.05,1.46,1.46,0,0,0,.62-.67,3.16,3.16,0,0,0,.42-1.23,1.54,1.54,0,0,1-.83-.26,1.82,1.82,0,0,1-.7-1A3,3,0,0,0,116.59,308.71Zm1.4-2.18a.23.23,0,0,0-.14,0,.4.4,0,0,0-.17.38s0,.07,0,.1a.84.84,0,0,0,.42.57,1.24,1.24,0,0,0,.53.18,2.51,2.51,0,0,0-.07-.5C118.46,306.81,118.27,306.55,118,306.53Z" style="fill:#263238"></path><path d="M123,310.49a.24.24,0,0,1-.24.24.35.35,0,0,1-.26-.18L120.93,307c0,.17-.05.36-.07.56-.21,1.69-.33,2.65-.37,2.89s-.11.24-.25.25a.33.33,0,0,1-.13,0,.3.3,0,0,1-.12-.26c.37-2.78.55-4.17.56-4.18a.17.17,0,0,1,0-.1.25.25,0,0,1,.22-.13c.14,0,.22,0,.26.12l1.53,3.44.45-3.32a.43.43,0,0,1,0-.11.22.22,0,0,1,.21-.13.27.27,0,0,1,.12,0,.23.23,0,0,1,.11.21,1.8,1.8,0,0,1,0,.22C123.18,308.88,123,310.22,123,310.49Z" style="fill:#263238"></path><path d="M124,308.8a3.89,3.89,0,0,1,.14-1,3.31,3.31,0,0,1,.68-1.29,1.37,1.37,0,0,1,1-.53,1,1,0,0,1,.84.45,2.32,2.32,0,0,1,.41,1.28l.29-.14a1,1,0,0,1,.38-.12.23.23,0,0,1,.11,0,.23.23,0,0,1,.11.2.33.33,0,0,1-.11.22,1.59,1.59,0,0,1-.79.32,4.54,4.54,0,0,1-.11.66,3.08,3.08,0,0,1-.69,1.32,1.36,1.36,0,0,1-1,.53h-.14a1.09,1.09,0,0,1-.77-.56A2.5,2.5,0,0,1,124,308.8Zm.51-.09a2.75,2.75,0,0,0,.16,1c.14.37.35.55.63.55a.41.41,0,0,0,.21-.05,1.52,1.52,0,0,0,.63-.67,3.14,3.14,0,0,0,.41-1.23,1.48,1.48,0,0,1-.82-.26,1.79,1.79,0,0,1-.71-1A3,3,0,0,0,124.54,308.71Zm1.4-2.18a.23.23,0,0,0-.14,0,.4.4,0,0,0-.16.38v.1a.84.84,0,0,0,.42.57,1.23,1.23,0,0,0,.54.18,3.49,3.49,0,0,0-.08-.5C126.41,306.81,126.22,306.55,125.94,306.53Z" style="fill:#263238"></path><path d="M131.34,310.48h0q0,.24-.24.24a.26.26,0,0,1-.25-.3s.1-.86.29-2.49l-1.14,2.4c-.05.13-.09.2-.09.21a.29.29,0,0,1-.25.18h-.05c-.09,0-.15-.09-.2-.21l-.52-2.58c-.12.93-.25,1.78-.37,2.55h0c0,.16-.11.24-.25.24a.25.25,0,0,1-.12,0,.29.29,0,0,1-.12-.26s.14-1.11.43-3.28q.11-.84.12-.9a.3.3,0,0,1,0-.1.25.25,0,0,1,.22-.13h.07c.08,0,.13.07.14.14,0,.23.18.89.4,2,.16.79.26,1.31.3,1.54l1.65-3.49,0-.06a.26.26,0,0,1,.22-.12.25.25,0,0,1,.11,0,.24.24,0,0,1,.13.2c0,.06,0,.13,0,.21C131.56,308.84,131.39,310.18,131.34,310.48Z" style="fill:#263238"></path><path d="M135.66,306a.2.2,0,0,1,.11,0,.21.21,0,0,1,.13.21c-.33,2.64-.51,4.06-.55,4.28a2.54,2.54,0,0,1-.44,1.11,1.58,1.58,0,0,1-1.35.67,1.53,1.53,0,0,1-.65-.18,1.42,1.42,0,0,1-.72-.63.21.21,0,0,1,0-.12.27.27,0,0,1,0-.12.24.24,0,0,1,.21-.12.26.26,0,0,1,.19.1,1.32,1.32,0,0,0,1,.6,1,1,0,0,0,.81-.42,2.2,2.2,0,0,0,.45-1.28,1.3,1.3,0,0,1-.3.32,1.21,1.21,0,0,1-.73.24h-.14a1.06,1.06,0,0,1-.77-.56,2.47,2.47,0,0,1-.34-1.36c0-.24,0-.5,0-.76,0-.42.13-1,.28-1.76a.14.14,0,0,1,0-.07.22.22,0,0,1,.22-.17l.12,0a.23.23,0,0,1,.12.2c0,.12,0,.43-.11.93a13,13,0,0,0-.17,1.42,2.84,2.84,0,0,0,.19,1.11c.14.33.34.5.6.5H134a1.06,1.06,0,0,0,.61-.49,3.1,3.1,0,0,0,.51-1.12l.31-2.33a.23.23,0,0,1,0-.11A.22.22,0,0,1,135.66,306Z" style="fill:#263238"></path><path d="M148.73,308.31a3.56,3.56,0,1,1-3.56-3.56A3.56,3.56,0,0,1,148.73,308.31Z" style="fill:#263238"></path><path d="M144.7,309.42a.58.58,0,1,1-.58-.58A.58.58,0,0,1,144.7,309.42Z" style="fill:#455a64"></path><path d="M143.88,307.75a.34.34,0,0,1-.34.33.34.34,0,1,1,0-.67A.34.34,0,0,1,143.88,307.75Z" style="fill:#455a64"></path><path d="M141.71,309.18c0,.06-3.05,3-2.26,3.62s4.12-1,7-3.26,5.42-5.07,4.71-5.81-4.25,1.45-4.25,1.45l.43.27s2.14-1.38,2.81-.84-1.25,2.61-4,4.6-5.36,3.38-5.77,2.84,1.52-2.36,1.52-2.36Z" style="fill:#263238"></path><g style="opacity:0.30000000000000004"><path d="M143.2,305.8s-.21.24-.48.65a3.51,3.51,0,0,0-.58,1.79,3.38,3.38,0,0,0,.51,1.81c.25.43.49.64.46.67s-.31-.14-.62-.56a3.05,3.05,0,0,1-.62-1.92,3.17,3.17,0,0,1,.23-1.11,3.23,3.23,0,0,1,.46-.79A1.53,1.53,0,0,1,143.2,305.8Z" style="fill:#455a64"></path></g><path d="M153.43,314.56c-.05,0-.09-2.79-.09-6.22s0-6.23.09-6.23.1,2.79.1,6.23S153.49,314.56,153.43,314.56Z" style="fill:#263238"></path><path d="M98,314.56s-.09-2.79-.09-6.22,0-6.23.09-6.23.1,2.79.1,6.23S98.06,314.56,98,314.56Z" style="fill:#263238"></path><path d="M154.62,314.56c-.05,0-.1-2.79-.1-6.22s0-6.23.1-6.23.1,2.79.1,6.23S154.67,314.56,154.62,314.56Z" style="fill:#263238"></path><path d="M96.89,314.56s-.09-2.79-.09-6.22,0-6.23.09-6.23.1,2.79.1,6.23S97,314.56,96.89,314.56Z" style="fill:#263238"></path><polygon points="90.06 209.32 90.06 233.17 124.95 233.17 163.43 233.17 163.43 209.32 90.06 209.32" style="fill:#407BFF"></polygon><polygon points="86.98 202.65 86.98 209.32 166 209.32 166 202.65 124.95 202.65 86.98 202.65" style="fill:#407BFF"></polygon><polygon points="126.49 233.17 163.43 233.17 163.43 209.32 166 209.32 166 202.65 124.95 202.65 124.95 208.7 126.49 233.17" style="fill:#407BFF"></polygon><rect x="100.32" y="213.16" width="14.88" height="3.59" style="fill:#fff"></rect><rect x="98.41" y="221.24" width="19.11" height="7.58" style="fill:#fff"></rect><path d="M166.59,209.25c0,.2-17.74.36-39.62.36s-39.62-.16-39.62-.36,17.74-.37,39.62-.37S166.59,209.05,166.59,209.25Z" style="fill:#263238"></path><path d="M127.48,233.08c-.2,0-.36-5.29-.36-11.81s.16-11.82.36-11.82.36,5.29.36,11.82S127.68,233.08,127.48,233.08Z" style="fill:#263238"></path><polygon points="96.83 183.79 96.83 202.65 124.41 202.65 154.83 202.65 154.83 183.79 96.83 183.79" style="fill:#455a64"></polygon><polygon points="94.4 178.51 94.4 183.79 156.86 183.79 156.86 178.51 124.41 178.51 94.4 178.51" style="fill:#455a64"></polygon><polygon points="125.63 202.65 154.83 202.65 154.83 183.79 156.86 183.79 156.86 178.51 124.41 178.51 124.41 183.3 125.63 202.65" style="fill:#455a64"></polygon><rect x="104.94" y="186.83" width="11.76" height="2.84" style="fill:#fff"></rect><rect x="103.43" y="193.22" width="15.1" height="5.99" style="fill:#fff"></rect><path d="M157.33,183.73c0,.2-14,.37-31.32.37s-31.33-.17-31.33-.37,14-.36,31.33-.36S157.33,183.53,157.33,183.73Z" style="fill:#263238"></path><path d="M126.41,202.58c-.2,0-.36-4.19-.36-9.34s.16-9.35.36-9.35.36,4.19.36,9.35S126.61,202.58,126.41,202.58Z" style="fill:#263238"></path><path d="M157.16,202.48c0,.21-13.5.37-30.15.37s-30.15-.16-30.15-.37,13.49-.36,30.15-.36S157.16,202.28,157.16,202.48Z" style="fill:#263238"></path><path d="M175.51,447.65V457h-8.8v-9.38Z" style="fill:#ebebeb"></path><path d="M127.19,446.85c-1.38,3.32-1.18,7,0,10.86H176V457h-3.11a4.69,4.69,0,0,1-4.69-4.69h0a4.69,4.69,0,0,1,4.69-4.69h3.28v-1Z" style="fill:#407BFF"></path><path d="M170.32,448.37c0,.05-9.77.09-21.82.09s-21.83,0-21.83-.09,9.77-.1,21.83-.1S170.32,448.31,170.32,448.37Z" style="fill:#e0e0e0"></path><path d="M170.74,456.52c0,.05-9.82.09-21.94.09s-22,0-22-.09,9.83-.1,22-.1S170.74,456.46,170.74,456.52Z" style="fill:#e0e0e0"></path><g style="opacity:0.30000000000000004"><path d="M145.09,450c.75,0,1.14.28,1.15.85a1.3,1.3,0,0,1-.48,1.09.91.91,0,0,1,.73.95,1.42,1.42,0,0,1-.12.53c-.24.53-.81.79-1.69.79l-.49,0a.15.15,0,0,1-.11,0,.25.25,0,0,1-.11-.22l.48-3.69a.29.29,0,0,1,0-.09.2.2,0,0,1,.19-.12Zm-.46,2.26-.2,1.53h.24a2.3,2.3,0,0,0,.73-.1.81.81,0,0,0,.66-.8c0-.27-.18-.45-.53-.55A4.13,4.13,0,0,0,144.63,452.26Zm.24-1.86-.19,1.41h.16c.66,0,1-.36,1-1a.4.4,0,0,0-.17-.34,1.31,1.31,0,0,0-.65-.12Z"></path><path d="M147,452.49a3.35,3.35,0,0,1,.13-.88,2.82,2.82,0,0,1,.6-1.14,1.2,1.2,0,0,1,.88-.47.92.92,0,0,1,.74.4,2.07,2.07,0,0,1,.36,1.12l.26-.11a1,1,0,0,1,.33-.11.17.17,0,0,1,.1,0,.19.19,0,0,1,.1.17.28.28,0,0,1-.1.19,1.31,1.31,0,0,1-.7.29,2.82,2.82,0,0,1-.1.58,2.66,2.66,0,0,1-.6,1.17,1.24,1.24,0,0,1-.89.46H148a1,1,0,0,1-.69-.49A2.23,2.23,0,0,1,147,452.49Zm.46-.08a2.4,2.4,0,0,0,.14.85c.12.32.31.49.55.49a.49.49,0,0,0,.19-.05,1.33,1.33,0,0,0,.55-.59,2.81,2.81,0,0,0,.36-1.09,1.33,1.33,0,0,1-.72-.22,1.58,1.58,0,0,1-.62-.86A2.68,2.68,0,0,0,147.42,452.41Zm1.23-1.92-.12,0a.36.36,0,0,0-.15.34.28.28,0,0,0,0,.09.72.72,0,0,0,.37.5.89.89,0,0,0,.47.15,1.93,1.93,0,0,0-.07-.43C149.07,450.73,148.9,450.51,148.65,450.49Z"></path><path d="M153.31,450.25a.17.17,0,0,1,0,.11.23.23,0,0,1-.2.09h-1.22c-.29,2.26-.44,3.43-.45,3.52v0a.22.22,0,0,1-.22.19.15.15,0,0,1-.11,0,.24.24,0,0,1-.1-.22s.1-.84.32-2.45c.07-.54.12-.88.14-1h-1.15a.25.25,0,0,1-.12,0,.17.17,0,0,1-.14-.17.19.19,0,0,1,0-.12.2.2,0,0,1,.2-.1h2.91A.21.21,0,0,1,153.31,450.25Z"></path><path d="M154.43,450.14l0,.07c0,.15.27,1.38.7,3.7a.13.13,0,0,1,0,.06.23.23,0,0,1,0,.11.2.2,0,0,1-.18.11h0a.19.19,0,0,1-.17-.14l-.24-1.23H153.3l-.59,1.23,0,0a.26.26,0,0,1-.19.11.15.15,0,0,1-.11,0,.19.19,0,0,1-.1-.18.13.13,0,0,1,0-.06l.19-.41c.85-1.87,1.37-3,1.54-3.32a.24.24,0,0,1,.2-.15A.26.26,0,0,1,154.43,450.14Zm-.27.83-.66,1.4h.94Z"></path><path d="M158.33,454q0,.21-.21.21a.28.28,0,0,1-.23-.16l-1.36-3.1c0,.15,0,.31-.06.49-.18,1.49-.28,2.34-.32,2.55s-.1.22-.22.22a.15.15,0,0,1-.11,0,.24.24,0,0,1-.11-.22c.32-2.45.49-3.68.49-3.69a.16.16,0,0,1,0-.09.26.26,0,0,1,.42,0l1.35,3,.39-2.93a.32.32,0,0,1,0-.09.19.19,0,0,1,.18-.12.23.23,0,0,1,.11,0,.21.21,0,0,1,.1.18l0,.2C158.52,452.56,158.37,453.74,158.33,454Z"></path><path d="M162.14,450.05l.09,0a.21.21,0,0,1,.12.19c-.3,2.32-.46,3.58-.49,3.77a2.29,2.29,0,0,1-.38,1,1.39,1.39,0,0,1-1.77.44,1.33,1.33,0,0,1-.64-.56.2.2,0,0,1,0-.11.19.19,0,0,1,0-.1.2.2,0,0,1,.18-.11.18.18,0,0,1,.16.09,1.16,1.16,0,0,0,.93.52.9.9,0,0,0,.71-.36,2,2,0,0,0,.4-1.13,1,1,0,0,1-.27.28,1.07,1.07,0,0,1-.64.21h-.12a1,1,0,0,1-.69-.49,2.23,2.23,0,0,1-.3-1.2c0-.21,0-.44,0-.67s.12-.88.25-1.55c0,0,0,0,0-.06a.21.21,0,0,1,.2-.15.19.19,0,0,1,.1,0,.2.2,0,0,1,.11.17,7,7,0,0,1-.1.82,12.41,12.41,0,0,0-.14,1.25,2.48,2.48,0,0,0,.16,1c.12.29.3.44.53.44h.07a.94.94,0,0,0,.54-.43,2.8,2.8,0,0,0,.45-1l.27-2.05a.12.12,0,0,1,0-.09A.2.2,0,0,1,162.14,450.05Z"></path></g><g style="opacity:0.30000000000000004"><path d="M134.14,454.48a1.91,1.91,0,0,0,1.16-1.61,2.28,2.28,0,0,0-.82-1.57,6.63,6.63,0,0,0-1.54-1l-1.35-.68a.57.57,0,0,0-.47-.08c-.15.07-.2.26-.23.42a6.09,6.09,0,0,0,.42,3.45,2.42,2.42,0,0,0,1.35,1.48,2.12,2.12,0,0,0,1.48-.45"></path></g><path d="M134.81,455.33a20,20,0,0,1-1.65-2.28,20.79,20.79,0,0,1-1.49-2.39,21.19,21.19,0,0,1,1.65,2.28A20.79,20.79,0,0,1,134.81,455.33Z" style="fill:#407BFF"></path><path d="M133.05,452.71a1.51,1.51,0,0,1-.72-.06c-.39-.09-.69-.21-.68-.26s.33,0,.72.07S133.06,452.66,133.05,452.71Z" style="fill:#407BFF"></path><path d="M133.86,453.85s-.33,0-.72-.07-.69-.2-.68-.25.34,0,.72.06S133.87,453.79,133.86,453.85Z" style="fill:#407BFF"></path><path d="M133.53,453.38a1.83,1.83,0,0,1-.1-.82c0-.46,0-.82.1-.82a1.88,1.88,0,0,1,.09.82A1.78,1.78,0,0,1,133.53,453.38Z" style="fill:#407BFF"></path><g style="opacity:0.30000000000000004"><path d="M137.12,453.67a1.52,1.52,0,0,0,1.48.5,1.83,1.83,0,0,0,1-1,4.93,4.93,0,0,0,.35-1.37l.19-1.17c0-.13,0-.28-.05-.37a.39.39,0,0,0-.36-.07,4.66,4.66,0,0,0-2.48,1.12,1.9,1.9,0,0,0-.8,1.35,1.69,1.69,0,0,0,.69,1"></path></g><path d="M136.64,454.37a13,13,0,0,1,1.3-1.78,13.15,13.15,0,0,1,1.45-1.66,11.48,11.48,0,0,1-1.3,1.78A12.33,12.33,0,0,1,136.64,454.37Z" style="fill:#407BFF"></path><path d="M138.19,452.44c-.06,0-.12-.24-.14-.55s0-.56,0-.57.11.25.14.56S138.24,452.44,138.19,452.44Z" style="fill:#407BFF"></path><path d="M137.53,453.32c-.05,0-.12-.25-.14-.56s0-.56.05-.57.12.25.14.56S137.58,453.31,137.53,453.32Z" style="fill:#407BFF"></path><path d="M137.8,453s.24-.18.58-.29.63-.15.65-.1-.25.18-.59.29S137.81,453,137.8,453Z" style="fill:#407BFF"></path><path d="M175.51,452.47s-1.64.09-3.66.09-3.66,0-3.66-.09a32.21,32.21,0,0,1,3.66-.1A32.21,32.21,0,0,1,175.51,452.47Z" style="fill:#e0e0e0"></path><path d="M175.51,454.58a55.83,55.83,0,0,1-6.68,0,55.83,55.83,0,0,1,6.68,0Z" style="fill:#e0e0e0"></path><path d="M175.56,456.51a29.82,29.82,0,0,1-4.88,0,33.12,33.12,0,0,1,4.88,0Z" style="fill:#e0e0e0"></path><path d="M175.57,450.57a34.3,34.3,0,0,1-3.52.09,34.46,34.46,0,0,1-3.52-.09,29.84,29.84,0,0,1,3.52-.1A29.7,29.7,0,0,1,175.57,450.57Z" style="fill:#e0e0e0"></path><path d="M175.51,448.67a41.15,41.15,0,0,1-5.44,0,37,37,0,0,1,5.44,0Z" style="fill:#e0e0e0"></path><path d="M180.39,436.75v9.38H162.24v-9.38Z" style="fill:#ebebeb"></path><path d="M121.77,441.52c0,.09,0,.17,0,.25a5.38,5.38,0,0,0,5.4,5h54.06v-.68H168.41a4.69,4.69,0,0,1-4.69-4.69h0a4.69,4.69,0,0,1,4.69-4.69h12.83v-1l-54.08.18A5.41,5.41,0,0,0,121.77,441.52Z" style="fill:#407BFF"></path><path d="M180.39,441.56c0,.06-3.73.1-8.33.1s-8.34,0-8.34-.1,3.73-.09,8.34-.09S180.39,441.51,180.39,441.56Z" style="fill:#e0e0e0"></path><path d="M180.13,443.68c0,.05-3.53.09-7.89.09s-7.88,0-7.88-.09,3.53-.1,7.88-.1S180.13,443.62,180.13,443.68Z" style="fill:#e0e0e0"></path><path d="M180.39,445.61c0,.05-3.17.1-7.09.1s-7.09,0-7.09-.1,3.18-.1,7.09-.1S180.39,445.56,180.39,445.61Z" style="fill:#e0e0e0"></path><path d="M180.39,439.66c0,.06-3.65.1-8.16.1s-8.17,0-8.17-.1,3.66-.09,8.17-.09S180.39,439.61,180.39,439.66Z" style="fill:#e0e0e0"></path><path d="M180.13,437.76c0,.06-3.25.1-7.27.1s-7.26,0-7.26-.1,3.25-.09,7.26-.09S180.13,437.71,180.13,437.76Z" style="fill:#e0e0e0"></path><g style="opacity:0.30000000000000004"><path d="M121.77,441.52c0,.09,0,.17,0,.25a5.38,5.38,0,0,0,5.4,5h54.06v-.68H168.41a4.69,4.69,0,0,1-4.69-4.69h0a4.69,4.69,0,0,1,4.69-4.69h12.83v-1l-54.08.18A5.41,5.41,0,0,0,121.77,441.52Z"></path></g><path d="M128.32,436.09a11.62,11.62,0,0,0-1.15,1.36,6.95,6.95,0,0,0,.09,8.05,11.35,11.35,0,0,0,1.19,1.33,1.36,1.36,0,0,1-.39-.29,6.2,6.2,0,0,1-.91-1,6.84,6.84,0,0,1-.09-8.2,5.45,5.45,0,0,1,.88-1A1.67,1.67,0,0,1,128.32,436.09Z" style="fill:#e0e0e0"></path><path d="M126.49,435.89a11.62,11.62,0,0,0-1.15,1.36,7,7,0,0,0,.1,8.05,12,12,0,0,0,1.18,1.33,1.54,1.54,0,0,1-.39-.29,6.23,6.23,0,0,1-.9-1,6.82,6.82,0,0,1-.1-8.2,5.45,5.45,0,0,1,.88-1A1.67,1.67,0,0,1,126.49,435.89Z" style="fill:#e0e0e0"></path><path d="M163.22,436.09a11.62,11.62,0,0,0-1.15,1.36,7,7,0,0,0,.1,8.05,12,12,0,0,0,1.18,1.33,1.54,1.54,0,0,1-.39-.29,6.23,6.23,0,0,1-.9-1,6.86,6.86,0,0,1-.1-8.2,5.86,5.86,0,0,1,.88-1A2.44,2.44,0,0,1,163.22,436.09Z" style="fill:#e0e0e0"></path><path d="M161.4,435.89a11.62,11.62,0,0,0-1.15,1.36,6.95,6.95,0,0,0,.09,8.05,12,12,0,0,0,1.18,1.33,1.78,1.78,0,0,1-.39-.29,6.23,6.23,0,0,1-.9-1,6.86,6.86,0,0,1-.1-8.2,5.86,5.86,0,0,1,.88-1A1.82,1.82,0,0,1,161.4,435.89Z" style="fill:#e0e0e0"></path><path d="M134.47,442.84c0-1.27,0-2.54-.05-3.81a2.67,2.67,0,0,0-.13-1,.93.93,0,0,0-.73-.61c-.48-.22-1.22.18-1.55.73a3.62,3.62,0,0,0-.38,1.87,25.18,25.18,0,0,0,.15,3,3.39,3.39,0,0,0,.35,1.38,1.15,1.15,0,0,0,2.18-.18A3.72,3.72,0,0,0,134.47,442.84Z" style="fill:#e0e0e0"></path><path d="M155.47,441.75c0,.05-3.91.09-8.73.09s-8.73,0-8.73-.09,3.91-.1,8.73-.1S155.47,441.69,155.47,441.75Z" style="fill:#e0e0e0"></path><polygon points="74.28 152.55 74.18 143.66 79.02 143.66 79.19 152.55 74.28 152.55" style="fill:#f5f5f5"></polygon><path d="M78.74,145.24a12.24,12.24,0,0,1-2.25.1,12.24,12.24,0,0,1-2.25-.1,14.13,14.13,0,0,1,2.25-.09A14.13,14.13,0,0,1,78.74,145.24Z" style="fill:#e0e0e0"></path><path d="M78.74,146.62a14.13,14.13,0,0,1-2.25.09,14.13,14.13,0,0,1-2.25-.09,12.24,12.24,0,0,1,2.25-.1A12.24,12.24,0,0,1,78.74,146.62Z" style="fill:#e0e0e0"></path><path d="M78.74,148a14.13,14.13,0,0,1-2.25.09,14.13,14.13,0,0,1-2.25-.09,13.4,13.4,0,0,1,2.25-.1A13.4,13.4,0,0,1,78.74,148Z" style="fill:#e0e0e0"></path><path d="M78.74,149.36a13.4,13.4,0,0,1-2.25.1,13.4,13.4,0,0,1-2.25-.1,13.4,13.4,0,0,1,2.25-.1A13.4,13.4,0,0,1,78.74,149.36Z" style="fill:#e0e0e0"></path><path d="M78.74,150.73a12.24,12.24,0,0,1-2.25.1,12.24,12.24,0,0,1-2.25-.1,14.13,14.13,0,0,1,2.25-.09A14.13,14.13,0,0,1,78.74,150.73Z" style="fill:#e0e0e0"></path><path d="M73.76,143.37h53.65a25.22,25.22,0,0,1,0,9.61H74v-.66h3.27a1.54,1.54,0,0,0,1.54-1.54v-5.32a1.54,1.54,0,0,0-1.54-1.54h-3.5Z" style="fill:#407BFF"></path><path d="M86.61,148.24h.89l.1,0a.19.19,0,0,1,.1.17s0,0,0,.06l-.06.23a2.6,2.6,0,0,1-.56,1,1.07,1.07,0,0,1-.76.39H86.2a.89.89,0,0,1-.61-.44,2,2,0,0,1-.27-1.08,3,3,0,0,1,.11-.77,2.56,2.56,0,0,1,.53-1,1.08,1.08,0,0,1,.8-.42.77.77,0,0,1,.34.07,1.1,1.1,0,0,1,.53.66.19.19,0,0,1,0,.08.17.17,0,0,1,0,.1.17.17,0,0,1-.16.1h-.07a.18.18,0,0,1-.12-.12v0a.7.7,0,0,0-.11-.21.51.51,0,0,0-.42-.26.53.53,0,0,0-.3.11,1.63,1.63,0,0,0-.49.7,2.69,2.69,0,0,0-.21,1,1.9,1.9,0,0,0,.15.8.53.53,0,0,0,.47.35.63.63,0,0,0,.43-.26,2.41,2.41,0,0,0,.46-.84H86.6a.21.21,0,0,1-.21-.22.14.14,0,0,1,0-.06C86.44,148.27,86.51,148.24,86.61,148.24Z" style="fill:#fafafa"></path><path d="M89.65,146.49l0,.07c0,.13.25,1.23.63,3.32a.09.09,0,0,1,0,.05.22.22,0,0,1,0,.1.18.18,0,0,1-.16.09h0A.17.17,0,0,1,90,150l-.21-1.1h-1.1l-.53,1.1,0,0a.22.22,0,0,1-.17.09.19.19,0,0,1-.1,0,.18.18,0,0,1-.09-.16s0,0,0-.06.09-.19.17-.36c.77-1.68,1.23-2.68,1.38-3a.24.24,0,0,1,.19-.14A.23.23,0,0,1,89.65,146.49Zm-.24.74-.59,1.26h.84Z" style="fill:#fafafa"></path><path d="M92.65,150.12H91a.17.17,0,0,1-.1,0,.29.29,0,0,1-.1-.2h0c0-.07.15-1.17.45-3.31,0,0,0-.05,0-.07a.17.17,0,0,1,.17-.12l.09,0a.18.18,0,0,1,.1.17c0,.15-.05.45-.11.91-.18,1.41-.28,2.16-.28,2.24h1.37a.16.16,0,0,1,.1,0,.18.18,0,0,1,.13.18s0,0,0,.06A.23.23,0,0,1,92.65,150.12Z" style="fill:#fafafa"></path><path d="M94.86,146.49a.25.25,0,0,0,0,.07c0,.13.25,1.23.63,3.32a.09.09,0,0,1,0,.05.22.22,0,0,1,0,.1.16.16,0,0,1-.15.09h0a.16.16,0,0,1-.14-.13l-.22-1.1h-1.1l-.53,1.1a.05.05,0,0,1,0,0,.21.21,0,0,1-.16.09.23.23,0,0,1-.11,0,.18.18,0,0,1-.09-.16.14.14,0,0,1,0-.06l.16-.36c.77-1.68,1.23-2.68,1.38-3a.24.24,0,0,1,.19-.14A.24.24,0,0,1,94.86,146.49Zm-.24.74-.6,1.26h.84Z" style="fill:#fafafa"></path><path d="M97.43,148.4c.13.35.23.62.29.81.17.46.26.7.26.73a.21.21,0,0,1,0,.1.18.18,0,0,1-.16.08c-.07,0-.12,0-.16-.13l0-.08c-.09-.2-.23-.58-.43-1.14L96.24,150a.21.21,0,0,1-.27.08.18.18,0,0,1-.09-.16s0,0,0,0a.33.33,0,0,1,.09-.16c.31-.4.65-.87,1-1.42l-.11-.3c-.35-.92-.52-1.4-.52-1.43a.3.3,0,0,1,0-.1.19.19,0,0,1,.16-.1.22.22,0,0,1,.18.11l.54,1.46,1.08-1.47a.21.21,0,0,1,.17-.09.15.15,0,0,1,.09,0,.18.18,0,0,1,.09.17.15.15,0,0,1,0,.09Z" style="fill:#fafafa"></path><path d="M101.43,146.41a.15.15,0,0,1,.09,0,.19.19,0,0,1,.11.16c-.27,2.09-.41,3.22-.44,3.39a2.11,2.11,0,0,1-.35.89,1.25,1.25,0,0,1-1.07.52,1.28,1.28,0,0,1-.52-.13,1.2,1.2,0,0,1-.57-.51.24.24,0,0,1,0-.09.19.19,0,0,1,0-.1.17.17,0,0,1,.16-.09.19.19,0,0,1,.15.08,1,1,0,0,0,.83.47.8.8,0,0,0,.64-.33,1.81,1.81,0,0,0,.36-1,1.42,1.42,0,0,1-.24.25,1,1,0,0,1-.58.19H99.9a.83.83,0,0,1-.61-.44,2,2,0,0,1-.27-1.08c0-.19,0-.39,0-.6s.11-.79.22-1.4c0,0,0,0,0-.05a.17.17,0,0,1,.17-.13l.1,0a.18.18,0,0,1,.09.16,6.82,6.82,0,0,1-.09.73c-.08.58-.13,1-.13,1.13a2.21,2.21,0,0,0,.15.88q.17.39.48.39h.06a1,1,0,0,0,.49-.39,2.48,2.48,0,0,0,.4-.89l.24-1.85a.26.26,0,0,1,0-.08A.16.16,0,0,1,101.43,146.41Z" style="fill:#fafafa"></path><path d="M125.56,153.16c-.06,0-.1-2.21-.1-4.93s0-4.93.1-4.93.09,2.21.09,4.93S125.61,153.16,125.56,153.16Z" style="fill:#263238"></path><path d="M81.66,153.16s-.1-2.21-.1-4.93,0-4.93.1-4.93.09,2.21.09,4.93S81.71,153.16,81.66,153.16Z" style="fill:#263238"></path><path d="M126.5,153.16s-.1-2.21-.1-4.93,0-4.93.1-4.93.09,2.21.09,4.93S126.55,153.16,126.5,153.16Z" style="fill:#263238"></path><path d="M80.78,153.16s-.1-2.21-.1-4.93,0-4.93.1-4.93.09,2.21.09,4.93S80.83,153.16,80.78,153.16Z" style="fill:#263238"></path><path d="M112.55,144.93v0l5.67,4.57.05,0-.06,0-.76.2L112.66,151h0l-4.34-1.84-1.23-.52-.32-.14-.09,0,0,0h0l.08,0,.33.13,1.23.51,4.35,1.82h0l4.79-1.26.75-.2v.05l-5.66-4.59h0" style="fill:#e0e0e0"></path><polygon points="117.7 148.77 118.01 149.06 118.42 148.97 118.24 149.36 118.45 149.72 118.03 149.67 117.75 149.99 117.67 149.57 117.28 149.4 117.66 149.19 117.7 148.77" style="fill:#e0e0e0"></polygon><polygon points="112.26 150.57 112.47 150.75 112.73 150.68 112.63 150.93 112.78 151.16 112.51 151.14 112.34 151.36 112.27 151.09 112.02 150.99 112.25 150.85 112.26 150.57" style="fill:#e0e0e0"></polygon><polygon points="106.25 148.11 106.59 148.13 106.8 147.86 106.88 148.19 107.2 148.31 106.91 148.49 106.9 148.82 106.64 148.61 106.32 148.7 106.44 148.39 106.25 148.11" style="fill:#e0e0e0"></polygon><polygon points="120.24 145 120.58 145.02 120.78 144.75 120.87 145.08 121.19 145.2 120.9 145.38 120.89 145.71 120.63 145.5 120.3 145.59 120.43 145.28 120.24 145" style="fill:#e0e0e0"></polygon><polygon points="112.28 144.78 112.49 144.79 112.62 144.62 112.68 144.83 112.88 144.9 112.7 145.02 112.69 145.23 112.52 145.1 112.31 145.16 112.39 144.96 112.28 144.78" style="fill:#e0e0e0"></polygon><path d="M120.71,145.23s-1.83,0-4.09-.13-4.1-.2-4.1-.22,1.84,0,4.1.14S120.71,145.21,120.71,145.23Z" style="fill:#e0e0e0"></path><path d="M122.77,143.34H68.36a4.59,4.59,0,0,1,0-4.53h54.41A5.21,5.21,0,0,1,122.77,143.34Z" style="fill:#455a64"></path><rect x="79.63" y="140.11" width="29.48" height="1.65" style="fill:#ebebeb"></rect><path d="M70.45,143.37a1.78,1.78,0,0,1-.42-.55,4,4,0,0,1-.29-3.28,1.67,1.67,0,0,1,.32-.61,4.85,4.85,0,0,1-.19.65,4.62,4.62,0,0,0-.15,1.62,4.78,4.78,0,0,0,.43,1.56A3.63,3.63,0,0,1,70.45,143.37Z" style="fill:#e0e0e0"></path><path d="M71.63,143.37a1.71,1.71,0,0,1-.43-.55,4.09,4.09,0,0,1-.29-3.28,1.59,1.59,0,0,1,.33-.61,4.25,4.25,0,0,1-.2.65,4.65,4.65,0,0,0-.14,1.62,4.8,4.8,0,0,0,.42,1.56A4.37,4.37,0,0,1,71.63,143.37Z" style="fill:#e0e0e0"></path><path d="M120.57,143.26a9.08,9.08,0,0,0,.39-2.21,9.57,9.57,0,0,0-.36-2.22,4.1,4.1,0,0,1,.55,2.22A3.91,3.91,0,0,1,120.57,143.26Z" style="fill:#e0e0e0"></path><path d="M119.56,143.25c-.06,0,.17-1,.17-2.17s-.23-2.15-.18-2.17a5.26,5.26,0,0,1,.37,2.17A5.52,5.52,0,0,1,119.56,143.25Z" style="fill:#e0e0e0"></path><path d="M65.59,153.16a19.09,19.09,0,0,0-6.37,14.54c.3,9.1,1.51,50.21,1.51,50.21l-24,34.77s-1.87-97.66,0-99.52S65.59,153.16,65.59,153.16Z" style="fill:#407BFF"></path><path d="M53.8,152.42a4.05,4.05,0,0,1-.19.76c-.13.49-.38,1.2-.61,2.14a74.8,74.8,0,0,0-1.75,8,94.57,94.57,0,0,0-1.15,12.08c-.17,4.57-.07,9.6.22,14.88.64,10.54,1.62,20.08,1.83,27,.13,3.47.15,6.27.1,8.21,0,1-.06,1.72-.08,2.23a4.39,4.39,0,0,1-.07.78,5.23,5.23,0,0,1,0-.78c0-.56,0-1.3,0-2.23,0-1.94-.09-4.74-.27-8.19-.31-6.92-1.34-16.44-2-27-.29-5.28-.38-10.33-.18-14.91a89.91,89.91,0,0,1,1.27-12.13,63.89,63.89,0,0,1,1.91-8c.27-.93.55-1.63.71-2.12A5.94,5.94,0,0,1,53.8,152.42Z" style="fill:#263238"></path><path d="M39.89,247.61s0-.08,0-.24l0-.73c0-.68,0-1.61-.07-2.78,0-2.46-.09-6-.15-10.24-.08-8.69-.18-20.61-.3-33.79s-.24-25.15.22-33.8c.2-4.32.52-7.81.8-10.21.13-1.2.26-2.14.35-2.76q.08-.44.12-.72a.68.68,0,0,1,0-.24.78.78,0,0,1,0,.25l-.06.72c-.06.67-.15,1.6-.26,2.77-.21,2.41-.48,5.89-.64,10.21-.36,8.63-.13,20.58-.06,33.78s.11,25.1.15,33.79c0,4.29,0,7.77,0,10.24,0,1.17,0,2.1,0,2.78,0,.29,0,.53,0,.73A.75.75,0,0,1,39.89,247.61Z" style="fill:#263238"></path><path d="M60.82,205.15c.1.09-5.18,6.26-11.81,13.78s-12.1,13.53-12.2,13.43S42,226.1,48.62,218.58,60.71,205.05,60.82,205.15Z" style="fill:#263238"></path><path d="M60,190.32c.1.11-5.22,5-11.87,10.89S36,211.82,36,211.71s5.22-5,11.87-10.89S60,190.22,60,190.32Z" style="fill:#263238"></path><path d="M59.45,174.29c.08.12-5.26,4.15-11.94,9S35.35,192,35.27,191.89s5.26-4.15,11.94-9S59.36,174.18,59.45,174.29Z" style="fill:#263238"></path><path d="M58.89,165.45a29.63,29.63,0,0,1-3.39,1c-2.1.58-5,1.41-8.17,2.42s-6,2-8,2.77a27.54,27.54,0,0,1-3.35,1.15,3.82,3.82,0,0,1,.84-.45c.56-.27,1.37-.62,2.38-1,2-.84,4.84-1.91,8-2.93s6.1-1.79,8.23-2.27c1.07-.25,1.93-.43,2.53-.54A3,3,0,0,1,58.89,165.45Z" style="fill:#263238"></path><path d="M61.28,158.13A29.29,29.29,0,0,1,57.6,158l-8.84-.58-8.85-.52a26.36,26.36,0,0,1-3.67-.3,3.89,3.89,0,0,1,1-.07c.64,0,1.55,0,2.69,0,2.27,0,5.41.14,8.87.36s6.59.49,8.85.74c1.12.12,2,.23,2.67.32A3.26,3.26,0,0,1,61.28,158.13Z" style="fill:#263238"></path></g></svg>