<svg width="18" height="18" viewBox="0 0 18 18" fill="none" xmlns="http://www.w3.org/2000/svg">
<path d="M17.0984 13.5251H14.6898C13.6993 13.5251 13.5249 12.812 13.5004 12.4543V10.0972C13.5004 9.10586 12.6637 9.02086 12.4213 9.01681H11.8697V9.0165H10.0861C9.08905 9.0165 9.00545 8.16274 9.00048 7.94011V5.65781C9.00048 4.68386 8.29685 4.52849 7.96804 4.50856H7.4024H5.62033C4.49963 4.50856 4.50025 3.47265 4.50025 3.47265V0.946549C4.48036 0.646082 4.32465 0 3.34473 0H1.00822C0.104135 0 0.00654694 0.659782 0.000331157 0.900778V16.8856C0.000331157 16.8856 -0.0518814 18 1.15491 18H16.7761C17.7535 18 17.9624 17.4489 18 17.1135V14.7353C18 13.7766 17.4449 13.5637 17.0984 13.5251ZM16.8619 16.0437C16.856 16.2585 16.7572 16.8769 15.7788 16.8769H2.21781C1.43742 16.8769 1.24566 16.427 1.2065 16.1128V15.818V14.7584V13.8134V13.2617V11.1185V10.1284V9.55267V8.83871V5.6603V5.47597V2.10451C1.2065 1.28874 1.71371 1.14364 1.97975 1.12278H2.62091C2.80924 1.13119 3.41342 1.24203 3.41342 2.32029V3.88241C3.41622 4.12714 3.50137 5.46975 5.05749 5.47566H6.68261C6.93715 5.48407 7.75887 5.5946 7.75887 6.69061V8.4028C7.78218 8.88293 8.00999 10.1281 9.73549 10.1281H11.0029C11.0029 10.1281 12.1724 10.1215 12.1724 11.4062V12.9151V12.936C12.1755 13.1396 12.2638 14.7696 14.3221 14.7581H15.7375C15.9653 14.7634 16.8603 14.8421 16.8622 15.7769V16.0437H16.8619Z" fill="#6B6F7B"/>
</svg>
